<?xml version="1.0" encoding="UTF-8"?>
<!-- Generator: Adobe Illustrator 28.0.0, SVG Export Plug-In . SVG Version: 6.00 Build 0)  -->
<svg xmlns="http://www.w3.org/2000/svg" xmlns:xlink="http://www.w3.org/1999/xlink" version="1.1" id="Layer_1" x="0px" y="0px" width="500px" height="500px" viewBox="0 0 500 500" style="enable-background:new 0 0 500 500;" xml:space="preserve">
<style type="text/css">
	.st0{fill:none;stroke:#FF0000;stroke-width:3;stroke-linejoin:round;stroke-miterlimit:10;}
	.st1{fill:none;}
	.st2{enable-background:new    ;}
	.st3{fill:#FF0000;}
</style>
<g>
	<g>
		<path class="st0" d="M245.6,169.9c-19.8,0-39.6,7.6-54.8,22.7c-30.3,30.3-30.3,79.3,0,109.6c15.1,15.1,35,22.7,54.8,22.7"></path>
		<g>
			<line class="st0" x1="245.6" y1="129.6" x2="245.6" y2="149.3"></line>
			<line class="st0" x1="245.6" y1="347.3" x2="245.6" y2="367.7"></line>
			<line class="st0" x1="245.6" y1="367.7" x2="245.6" y2="348"></line>
			<line class="st0" x1="186.1" y1="351.7" x2="195.9" y2="334.7"></line>
			<line class="st0" x1="142.5" y1="308.2" x2="159.5" y2="298.3"></line>
			<line class="st0" x1="126.6" y1="248.6" x2="146.2" y2="248.6"></line>
			<line class="st0" x1="142.5" y1="189.1" x2="159.5" y2="198.9"></line>
			<line class="st0" x1="186.1" y1="145.5" x2="195.9" y2="162.6"></line>
		</g>
	</g>
	<rect x="188.3" y="213.2" class="st1" width="167.6" height="71"></rect>
	<g class="st2">
		<path class="st3" d="M256.4,217.6h12.3v36.8c0,16-10,25.8-26.8,25.8c-16.7,0-26.6-9.9-26.7-25.8l-0.1-36.8h12.3v36.1    c0,9.4,5.4,15.2,14.5,15.2s14.5-5.7,14.5-15.2V217.6z"></path>
		<path class="st3" d="M301.1,279.3l-24.5-61v-0.7h13.3l15.7,41l15.8-41h13.3v0.7l-24.5,61H301.1z"></path>
	</g>
	<circle class="st0" cx="243.6" cy="248.6" r="144.7"></circle>
</g>
</svg>
