<svg id="Layer_1" data-name="Layer 1" xmlns="http://www.w3.org/2000/svg" viewBox="0 0 50 50"><defs><style>.cls-1{fill:#2b2523;}.cls-2{fill:#e3af00;}</style></defs><path class="cls-1" d="M25.31,34.39h0c-.72,0-1.47,0-2.29-.06A43.3,43.3,0,0,1,18,33.81c-3.81-.64-6.07-1.88-7.54-4.13a10.91,10.91,0,0,1-1.25-3.07c-.06-.18-.11-.35-.16-.52L9,26c-.11-.44-.19-.91-.27-1.4a25.24,25.24,0,0,1-.22-4.44c0-.1,0-.21,0-.31a7.45,7.45,0,0,1,.59-3.2,4,4,0,0,1,1.15-1.38A7,7,0,0,1,13.35,14c.33-.06.69-.11,1.07-.15a90.11,90.11,0,0,1,9.52-.56h.74A36.35,36.35,0,0,1,36.21,15l0,0a11.43,11.43,0,0,1,2.82,1.32,5.92,5.92,0,0,1,1.1,1,6.37,6.37,0,0,1,1.36,4,17.18,17.18,0,0,1-.76,5.15,8.52,8.52,0,0,1-2.63,4.19,11.44,11.44,0,0,1-2.63,1.74A22.59,22.59,0,0,1,25.31,34.39ZM10.4,25.67c0,.17.1.35.16.53a9.82,9.82,0,0,0,1.07,2.68c1.23,1.88,3.19,2.92,6.56,3.49a41.72,41.72,0,0,0,4.9.5c.79,0,1.52.06,2.22.06h0a21.36,21.36,0,0,0,9.55-1.84,10.34,10.34,0,0,0,2.3-1.53,7.29,7.29,0,0,0,1.45-1.72,7,7,0,0,0,.74-1.78,15.52,15.52,0,0,0,.71-4.69,4.94,4.94,0,0,0-1-3.1,4.87,4.87,0,0,0-.81-.75,10.46,10.46,0,0,0-2.47-1.14h0a34.87,34.87,0,0,0-11-1.57h-.73a88.61,88.61,0,0,0-9.37.55c-.34,0-.67.08-1,.14a5.57,5.57,0,0,0-2.48.94,2.61,2.61,0,0,0-.74.89A6.05,6.05,0,0,0,10,19.88c0,.12,0,.23,0,.33a23.13,23.13,0,0,0,.21,4.18A12.11,12.11,0,0,0,10.4,25.67Z"/><rect class="cls-1" x="13.53" y="27.86" width="20.59" height="0.82"/><polygon class="cls-2" points="19.29 28.12 16.94 24.53 17.2 24.36 19.33 27.62 24.95 21.38 25.18 21.59 19.29 28.12"/><path class="cls-2" d="M26.31,20.1A9.37,9.37,0,0,0,25.63,23l-.73-1.37-1.45-.59A9.25,9.25,0,0,0,26.31,20.1Z"/><polygon class="cls-2" points="22.27 28.12 19.92 24.53 20.18 24.36 22.31 27.62 27.93 21.38 28.16 21.59 22.27 28.12"/><path class="cls-2" d="M29.29,20.1A9.37,9.37,0,0,0,28.61,23l-.73-1.37-1.45-.59A9.25,9.25,0,0,0,29.29,20.1Z"/><polygon class="cls-2" points="25.15 28.12 22.8 24.53 23.06 24.36 25.19 27.62 30.81 21.38 31.04 21.59 25.15 28.12"/><path class="cls-2" d="M32.17,20.1A9.37,9.37,0,0,0,31.49,23l-.73-1.37-1.45-.59A9.25,9.25,0,0,0,32.17,20.1Z"/></svg>