<svg id="Layer_1" data-name="Layer 1" xmlns="http://www.w3.org/2000/svg" viewBox="0 0 50 50"><defs><style>.cls-1{fill:#2b2523;}.cls-2{fill:#e3af00;}</style></defs><path class="cls-1" d="M25,42.82a16,16,0,0,1-11.35-27.4,16.05,16.05,0,1,1,22.7,22.7A16,16,0,0,1,25,42.82Zm0-31.07a15,15,0,1,0,15,15A15,15,0,0,0,25,11.75Z"/><path class="cls-1" d="M25.61,35.21h0c-.51,0-1,0-1.62,0a29.75,29.75,0,0,1-3.61-.38c-2.72-.45-4.32-1.33-5.37-2.93a7.77,7.77,0,0,1-.89-2.19c0-.12-.08-.25-.11-.37l0-.06c-.07-.32-.14-.65-.19-1a18.66,18.66,0,0,1-.16-3.16,1.62,1.62,0,0,0,0-.22,5.28,5.28,0,0,1,.42-2.28,2.85,2.85,0,0,1,.82-1,4.94,4.94,0,0,1,2.21-.87c.24-.05.5-.08.76-.11a63.36,63.36,0,0,1,6.78-.4h.53a25.92,25.92,0,0,1,8.2,1.18h0a7.76,7.76,0,0,1,2,.95,4.1,4.1,0,0,1,.78.71,4.51,4.51,0,0,1,1,2.83,12,12,0,0,1-.54,3.66,6,6,0,0,1-1.87,3,8.33,8.33,0,0,1-1.87,1.24A16.24,16.24,0,0,1,25.61,35.21ZM15,29c0,.12.08.25.11.38a7.28,7.28,0,0,0,.77,1.91c.87,1.33,2.27,2.08,4.67,2.48a31.17,31.17,0,0,0,3.48.36c.57,0,1.09,0,1.58,0h0a15.23,15.23,0,0,0,6.8-1.31,7.67,7.67,0,0,0,1.64-1.09,5.19,5.19,0,0,0,1-1.23,5.27,5.27,0,0,0,.53-1.26,10.89,10.89,0,0,0,.5-3.34,3.48,3.48,0,0,0-.73-2.2,2.67,2.67,0,0,0-.58-.53,7,7,0,0,0-1.75-.82h0a25,25,0,0,0-7.86-1.12h-.52a62.26,62.26,0,0,0-6.67.39l-.68.1a4.07,4.07,0,0,0-1.77.67,2,2,0,0,0-.52.63,4.28,4.28,0,0,0-.31,1.83c0,.08,0,.16,0,.24a17.31,17.31,0,0,0,.15,3C14.88,28.41,14.93,28.71,15,29Z"/><rect class="cls-1" x="17.23" y="30.56" width="14.65" height="0.58"/><polygon class="cls-2" points="21.33 30.75 19.66 28.19 19.84 28.07 21.36 30.39 25.36 25.95 25.52 26.1 21.33 30.75"/><path class="cls-2" d="M26.32,25a6.81,6.81,0,0,0-.48,2.09l-.52-1-1-.41A6.62,6.62,0,0,0,26.32,25Z"/><polygon class="cls-2" points="23.45 30.75 21.78 28.19 21.96 28.07 23.48 30.39 27.48 25.95 27.64 26.1 23.45 30.75"/><path class="cls-2" d="M28.44,25A7.11,7.11,0,0,0,28,27.13l-.52-1-1-.41A6.53,6.53,0,0,0,28.44,25Z"/><polygon class="cls-2" points="25.5 30.75 23.83 28.19 24.01 28.07 25.53 30.39 29.53 25.95 29.69 26.1 25.5 30.75"/><path class="cls-2" d="M30.49,25A7.11,7.11,0,0,0,30,27.13l-.52-1-1-.41A6.53,6.53,0,0,0,30.49,25Z"/></svg>