<svg id="Layer_1" data-name="Layer 1" xmlns="http://www.w3.org/2000/svg" viewBox="0 0 50 50"><defs><style>.cls-1{fill:#2b2523;}.cls-2{fill:#e3af00;}</style></defs><path class="cls-1" d="M25.31,37.25c-.73,0-1.49,0-2.32-.06a44.12,44.12,0,0,1-5.14-.53C14,36,11.7,34.76,10.21,32.48a11.3,11.3,0,0,1-1.28-3.12l-.15-.53,0-.08c-.1-.45-.19-.93-.26-1.42a25.21,25.21,0,0,1-.23-4.51c0-.1,0-.21,0-.32a7.54,7.54,0,0,1,.6-3.24A4.09,4.09,0,0,1,10,17.86a7.14,7.14,0,0,1,3.16-1.24c.33-.06.7-.11,1.08-.15a89.39,89.39,0,0,1,9.66-.57h.75a36.85,36.85,0,0,1,11.68,1.68l0,0a11.4,11.4,0,0,1,2.86,1.34,5.9,5.9,0,0,1,2.49,5A17.06,17.06,0,0,1,41,29.21a9.79,9.79,0,0,1-.48,1.33l-1.35-.61a7.45,7.45,0,0,0,.4-1.12,15.71,15.71,0,0,0,.72-4.76,5,5,0,0,0-1-3.14,4,4,0,0,0-.83-.76A10.17,10.17,0,0,0,35.9,19h0a35,35,0,0,0-11.2-1.6h-.73a87.09,87.09,0,0,0-9.5.56c-.35,0-.68.08-1,.13a5.72,5.72,0,0,0-2.51,1,2.68,2.68,0,0,0-.75.9,6.09,6.09,0,0,0-.44,2.61c0,.11,0,.23,0,.34A23.69,23.69,0,0,0,10,27.11c.07.45.15.89.24,1.29.06.18.11.36.16.55a10.61,10.61,0,0,0,1.09,2.72c1.25,1.9,3.24,3,6.66,3.53a39.93,39.93,0,0,0,5,.51c.81,0,1.54.06,2.25.06a20.07,20.07,0,0,0,6.25-.71l.54,1.38A21.79,21.79,0,0,1,25.31,37.25Z"/><path class="cls-2" d="M39.05,26.75h0a6.63,6.63,0,0,0-1.25-.27,57.49,57.49,0,0,1-6.82-3,3.58,3.58,0,0,0-4.68,4.68,23.63,23.63,0,0,0,3.64,6.3l.69.7c.54.54,1,1.06,1.56,1.55.71.65,1.44,1.28,2.16,1.92a.51.51,0,0,0,.84-.48c0-.11,0-.23,0-.35A3.06,3.06,0,0,1,35.6,36l.16.09a13.76,13.76,0,0,0,3.69,2c.6.23.9,0,.85-.63a18.87,18.87,0,0,1,.63-6.69c.19-.69.1-.84-.62-1L39,29.58l1.46-1.46c.21-.21.5-.39.38-.77S40.38,27,40.1,27Zm-1.15,2.5a.37.37,0,0,1-.28,0l-1.93-.4c-.41-.09-.68,0-.75.36s.11.53.52.61l4.07.84.36.09A20.15,20.15,0,0,0,39.28,37c-.35-.16-.66-.29-1-.45a16.48,16.48,0,0,1-4.86-4c-.3-.35-.58-.72-.87-1.08s-.51-.35-.75-.17a.5.5,0,0,0,0,.8c.86,1,1.75,1.95,2.63,2.92l.29.29c-.22.62-.43,1.22-.66,1.83-.1-.09-.25-.2-.38-.32A24.09,24.09,0,0,1,29,31.5a9.62,9.62,0,0,1-1.9-3.28,3.66,3.66,0,0,1,.77-3.35c.57-.56,1.59-.68,3.36-.23,2.82.72,4,2.46,7.92,3.22l.1,0C38.81,28.35,38.37,28.81,37.9,29.25Z"/></svg>