<svg id="Layer_1" data-name="Layer 1" xmlns="http://www.w3.org/2000/svg" viewBox="0 0 50 50"><defs><style>.cls-1{fill:#2b2523;}.cls-2{fill:#13110c;}.cls-3{fill:#e3af00;}</style></defs><path class="cls-1" d="M25.64,35h0c-.72,0-1.47,0-2.29-.06a43.3,43.3,0,0,1-5.07-.52c-3.81-.64-6.06-1.88-7.54-4.13a10.91,10.91,0,0,1-1.25-3.07c-.06-.18-.11-.36-.16-.53l0-.08c-.11-.44-.19-.91-.27-1.4a25.24,25.24,0,0,1-.22-4.44c0-.1,0-.21,0-.32a7.43,7.43,0,0,1,.59-3.19,4,4,0,0,1,1.15-1.38,7,7,0,0,1,3.11-1.23c.33-.06.69-.11,1.07-.15A90.31,90.31,0,0,1,24.27,14H25a36.35,36.35,0,0,1,11.53,1.65l0,0A10.85,10.85,0,0,1,39.39,17a5.92,5.92,0,0,1,1.1,1,6.37,6.37,0,0,1,1.36,4,16.91,16.91,0,0,1-.76,5.15,8.59,8.59,0,0,1-.9,2.12,8.86,8.86,0,0,1-1.73,2.07A11.55,11.55,0,0,1,35.83,33,22.72,22.72,0,0,1,25.64,35ZM10.73,26.31l.15.53A10.1,10.1,0,0,0,12,29.53c1.23,1.88,3.19,2.92,6.56,3.49a41.72,41.72,0,0,0,4.9.5c.79,0,1.52.06,2.22.06h0a21.35,21.35,0,0,0,9.55-1.85,10.32,10.32,0,0,0,2.3-1.52,7.29,7.29,0,0,0,1.45-1.72,7,7,0,0,0,.74-1.78A15.52,15.52,0,0,0,40.39,22a4.94,4.94,0,0,0-1-3.1,4.17,4.17,0,0,0-.81-.75A10.08,10.08,0,0,0,36.08,17h0a34.51,34.51,0,0,0-11-1.58h-.73a88.16,88.16,0,0,0-9.36.55c-.35,0-.67.08-1,.14a5.57,5.57,0,0,0-2.48.94,2.61,2.61,0,0,0-.74.89,6.05,6.05,0,0,0-.43,2.57c0,.11,0,.22,0,.33A23.13,23.13,0,0,0,10.49,25,11.92,11.92,0,0,0,10.73,26.31Z"/><path class="cls-2" d="M25,29.28a4.47,4.47,0,1,1,4.46-4.46A4.46,4.46,0,0,1,25,29.28Zm0-8.57a4.11,4.11,0,1,0,4.1,4.11A4.11,4.11,0,0,0,25,20.71Z"/><path class="cls-3" d="M25.11,29.37a15,15,0,0,1-10.69-4.43l-.13-.13.13-.13a15.11,15.11,0,0,1,21.38,0l.13.13-.13.13A15,15,0,0,1,25.11,29.37ZM14.76,24.81a14.8,14.8,0,0,0,20.69,0A14.8,14.8,0,0,0,14.76,24.81Z"/><circle class="cls-2" cx="24.98" cy="24.82" r="1.57"/><path class="cls-2" d="M23.41,28.19l-.07,0A3.89,3.89,0,0,1,21.47,25a3.7,3.7,0,0,1,1.87-3.26l.07,0,.53.93-.07,0A2.59,2.59,0,0,0,22.54,25a2.86,2.86,0,0,0,1.33,2.22l.06,0Zm-.06-6.28A3.52,3.52,0,0,0,21.62,25a3.71,3.71,0,0,0,1.73,3l.39-.68A3,3,0,0,1,22.4,25a2.74,2.74,0,0,1,1.34-2.41Z"/></svg>