<svg id="Layer_1" data-name="Layer 1" xmlns="http://www.w3.org/2000/svg" viewBox="0 0 50 50"><defs><style>.cls-1{fill:#25221f;}.cls-2{fill:#fff;}.cls-3{fill:#2b2523;}.cls-4{fill:#13110c;}.cls-5{fill:#e3af00;}</style></defs><rect class="cls-1" x="24.91" y="10.52" width="0.89" height="30.26" transform="translate(30.72 -10.01) rotate(53.21)"/><path class="cls-2" d="M13.49,35.14l-.59-.79,0,0L37.22,16.17l.59.79,0,0ZM13,34.37l.47.63L37.67,16.94l-.47-.63Z"/><path class="cls-3" d="M25,41.29a16,16,0,0,1-11.35-27.4,16.05,16.05,0,1,1,22.7,22.7A16,16,0,0,1,25,41.29Zm0-31.07a15,15,0,1,0,15,15A15,15,0,0,0,25,10.22Z"/><path class="cls-2" d="M25.61,33.16h0c-.5,0-1,0-1.6,0a29.68,29.68,0,0,1-3.55-.37c-2.55-.43-4.05-1.24-5-2.71A7,7,0,0,1,14.62,28l-.12-.37v0h0c-.07-.3-.13-.62-.18-.95a17.63,17.63,0,0,1-.16-3.07,1.77,1.77,0,0,0,0-.23,4.89,4.89,0,0,1,.36-2.05,2.4,2.4,0,0,1,.68-.81,4.37,4.37,0,0,1,2-.77c.23,0,.47-.08.73-.1a62.29,62.29,0,0,1,6.72-.4h.52a25.55,25.55,0,0,1,8,1.15h0a7.66,7.66,0,0,1,1.88.88,3.74,3.74,0,0,1,.68.63,4,4,0,0,1,.85,2.51,11.57,11.57,0,0,1-.52,3.5,5.18,5.18,0,0,1-.59,1.39,5.71,5.71,0,0,1-1.12,1.35,8,8,0,0,1-1.76,1.16A15.66,15.66,0,0,1,25.61,33.16Z"/><path class="cls-3" d="M25.61,33.68h0c-.51,0-1,0-1.62,0a29.75,29.75,0,0,1-3.61-.38c-2.72-.45-4.32-1.33-5.37-2.93a7.77,7.77,0,0,1-.89-2.19c0-.13-.08-.25-.11-.37l0-.06c-.07-.32-.14-.65-.19-1a18.66,18.66,0,0,1-.16-3.16,1.62,1.62,0,0,0,0-.22,5.28,5.28,0,0,1,.42-2.28,2.85,2.85,0,0,1,.82-1,4.94,4.94,0,0,1,2.21-.87c.24-.05.5-.08.76-.11a63.36,63.36,0,0,1,6.78-.4h.53a25.67,25.67,0,0,1,8.2,1.17h0a8.1,8.1,0,0,1,2,.95,4.1,4.1,0,0,1,.78.71,4.51,4.51,0,0,1,1,2.83A12,12,0,0,1,36.61,28a6,6,0,0,1-1.87,3,8.33,8.33,0,0,1-1.87,1.24A16.24,16.24,0,0,1,25.61,33.68ZM15,27.47c0,.12.08.25.11.38a7.28,7.28,0,0,0,.77,1.91c.87,1.34,2.27,2.08,4.67,2.48A31.17,31.17,0,0,0,24,32.6c.57,0,1.09,0,1.58,0h0a15.23,15.23,0,0,0,6.8-1.31,7.67,7.67,0,0,0,1.64-1.09,5.19,5.19,0,0,0,1-1.23,5.27,5.27,0,0,0,.53-1.26,10.89,10.89,0,0,0,.5-3.34,3.48,3.48,0,0,0-.73-2.2,2.67,2.67,0,0,0-.58-.53,7,7,0,0,0-1.75-.82h0a25,25,0,0,0-7.86-1.12h-.52a62.26,62.26,0,0,0-6.67.39l-.68.1a4.07,4.07,0,0,0-1.77.67,2,2,0,0,0-.52.63,4.28,4.28,0,0,0-.31,1.83c0,.08,0,.16,0,.24a17.31,17.31,0,0,0,.15,3C14.88,26.88,14.93,27.18,15,27.47Z"/><path class="cls-4" d="M25.14,29.58a3.18,3.18,0,1,1,3.18-3.18A3.18,3.18,0,0,1,25.14,29.58Zm0-6.1a2.92,2.92,0,1,0,2.92,2.92A2.92,2.92,0,0,0,25.14,23.48Z"/><path class="cls-5" d="M25.23,29.65a10.65,10.65,0,0,1-7.6-3.16l-.1-.09.1-.09a10.76,10.76,0,0,1,15.21,0l.09.09-.09.09A10.66,10.66,0,0,1,25.23,29.65ZM17.87,26.4a10.53,10.53,0,0,0,14.72,0A10.53,10.53,0,0,0,17.87,26.4Z"/><circle class="cls-4" cx="25.14" cy="26.4" r="1.12"/><path class="cls-4" d="M24,28.8l-.05,0a2.76,2.76,0,0,1-1.33-2.24A2.61,2.61,0,0,1,24,24.22l.05,0,.37.67,0,0a1.86,1.86,0,0,0-.95,1.65,2,2,0,0,0,.95,1.59l0,0Zm0-4.46a2.52,2.52,0,0,0-1.24,2.2A2.63,2.63,0,0,0,24,28.66l.27-.48a2.12,2.12,0,0,1-1-1.65,2,2,0,0,1,1-1.71Z"/></svg>