<svg id="Layer_1" data-name="Layer 1" xmlns="http://www.w3.org/2000/svg" viewBox="0 0 50 50"><defs><style>.cls-1{fill:#2b2523;}.cls-2{fill:#e3af00;}.cls-3{fill:#13110c;}.cls-4{fill:#fff;}</style></defs><path class="cls-1" d="M25.31,35.53h0c-.72,0-1.47,0-2.29-.06A43.3,43.3,0,0,1,18,35c-3.81-.64-6.07-1.88-7.54-4.13a10.91,10.91,0,0,1-1.25-3.07c-.06-.18-.11-.35-.16-.52l0-.09c-.11-.44-.19-.91-.27-1.4a25.24,25.24,0,0,1-.22-4.44c0-.1,0-.21,0-.31a7.45,7.45,0,0,1,.59-3.2,4,4,0,0,1,1.15-1.38,7,7,0,0,1,3.11-1.23c.33-.06.69-.11,1.07-.15a90.11,90.11,0,0,1,9.52-.56h.74a36.35,36.35,0,0,1,11.53,1.65l0,0a11.43,11.43,0,0,1,2.82,1.32,5.92,5.92,0,0,1,1.1,1,6.37,6.37,0,0,1,1.36,4,17.18,17.18,0,0,1-.76,5.15,8.52,8.52,0,0,1-2.63,4.19,11.44,11.44,0,0,1-2.63,1.74A22.59,22.59,0,0,1,25.31,35.53ZM10.4,26.81c0,.17.1.35.16.53A9.82,9.82,0,0,0,11.63,30c1.23,1.88,3.19,2.92,6.56,3.49a41.72,41.72,0,0,0,4.9.5c.79,0,1.52.06,2.22.06h0a21.36,21.36,0,0,0,9.55-1.84,10.34,10.34,0,0,0,2.3-1.53A7.29,7.29,0,0,0,38.61,29a7,7,0,0,0,.74-1.78,15.52,15.52,0,0,0,.71-4.69,4.94,4.94,0,0,0-1-3.1,4.87,4.87,0,0,0-.81-.75,10.46,10.46,0,0,0-2.47-1.14h0a34.87,34.87,0,0,0-11-1.57h-.73a88.61,88.61,0,0,0-9.37.55c-.34,0-.67.08-1,.14a5.57,5.57,0,0,0-2.48.94,2.61,2.61,0,0,0-.74.89A6.05,6.05,0,0,0,10,21c0,.12,0,.23,0,.33a23.13,23.13,0,0,0,.21,4.18A12.61,12.61,0,0,0,10.4,26.81Z"/><path class="cls-1" d="M24.43,33.58,23,32.64c-3.46-2.3-4.94-4.71-4.94-8.06V16.63l.35.48a4,4,0,0,0,3,1.56h0a4,4,0,0,0,3.07-1.56l.14-.19.15.17a4.14,4.14,0,0,0,2.73,1.34,4.25,4.25,0,0,0,3.32-1.34l.33-.36v7.64a8.3,8.3,0,0,1-1.4,4.81A12.49,12.49,0,0,1,26,32.61Zm-6-15.85v6.85c0,3.21,1.43,5.52,4.77,7.74l1.21.81,1.37-.85c3.53-2.19,5-4.56,5-7.91v-6.7a4.66,4.66,0,0,1-3,1.16l-.31,0a4.47,4.47,0,0,1-2.82-1.3,4.35,4.35,0,0,1-3.24,1.54h0A4.31,4.31,0,0,1,18.45,17.73Z"/><path class="cls-2" d="M21.79,23.7A1.2,1.2,0,1,1,23,22.5,1.19,1.19,0,0,1,21.79,23.7Zm0-2.11a.91.91,0,1,0,.91.91A.91.91,0,0,0,21.79,21.59Z"/><rect class="cls-2" x="21.68" y="20.01" width="0.28" height="1.44"/><rect class="cls-2" x="21.65" y="23.56" width="0.28" height="0.86"/><rect class="cls-2" x="22.3" y="21.02" width="1.42" height="0.28" transform="translate(-8.22 22.47) rotate(-45)"/><rect class="cls-2" x="20.17" y="23.56" width="1.17" height="0.28" transform="translate(-10.68 21.62) rotate(-45)"/><rect class="cls-2" x="19.71" y="22.36" width="1.03" height="0.28"/><rect class="cls-2" x="22.84" y="22.36" width="0.86" height="0.28"/><rect class="cls-2" x="20.43" y="20.64" width="0.28" height="1.29" transform="translate(-9.02 20.78) rotate(-45)"/><rect class="cls-2" x="22.73" y="23.12" width="0.28" height="1.15" transform="translate(-10.06 23.11) rotate(-45)"/><path class="cls-3" d="M25.62,23l-.26.81H25l.88-2.58h.4l.88,2.58h-.36L26.54,23Zm.85-.26L26.22,22c-.06-.17-.1-.33-.14-.48h0c0,.15-.08.31-.13.47l-.26.75Z"/><path class="cls-3" d="M28.18,21.3a2.62,2.62,0,0,1,.61-.06,1.06,1.06,0,0,1,.71.19.54.54,0,0,1,.21.45.6.6,0,0,1-.43.57h0a.66.66,0,0,1,.53.64.7.7,0,0,1-.22.52,1.32,1.32,0,0,1-.89.24c-.23,0-.4,0-.52,0Zm.34,1.05h.3c.35,0,.55-.18.55-.43s-.22-.42-.56-.42a1.57,1.57,0,0,0-.29,0Zm0,1.23a1.1,1.1,0,0,0,.28,0c.34,0,.66-.13.66-.5s-.3-.5-.67-.5h-.27Z"/><path class="cls-3" d="M24.78,29.76a6.54,6.54,0,0,1-4.64-1.92l-.05-.05.05-.05a6.55,6.55,0,0,1,9.27,0l.05.05-.05.05A6.54,6.54,0,0,1,24.78,29.76Zm-4.48-2a6.41,6.41,0,0,0,9,0A6.41,6.41,0,0,0,20.3,27.79Z"/><path class="cls-3" d="M24.72,29.72a1.93,1.93,0,1,1,1.93-1.93A1.93,1.93,0,0,1,24.72,29.72Zm0-3.71a1.78,1.78,0,1,0,1.78,1.78A1.78,1.78,0,0,0,24.72,26Z"/><circle class="cls-3" cx="24.72" cy="27.79" r="0.89"/><circle class="cls-4" cx="25.17" cy="27.33" r="0.35"/></svg>