<svg id="Layer_1" data-name="Layer 1" xmlns="http://www.w3.org/2000/svg" viewBox="0 0 50 50"><defs><style>.cls-1{fill:#2b2523;}.cls-2{fill:#e3af00;}.cls-3{fill:#13110c;}.cls-4{fill:#fff;}</style></defs><path class="cls-1" d="M25,42.14a16,16,0,0,1-11.35-27.4,15.92,15.92,0,0,1,5.1-3.45,16.13,16.13,0,0,1,12.5,0,16.07,16.07,0,0,1,0,29.59A15.9,15.9,0,0,1,25,42.14Zm0-31.07a15,15,0,1,0,15,15A15,15,0,0,0,25,11.07Z"/><path class="cls-1" d="M25.61,34.52h0c-.51,0-1,0-1.62,0a28.32,28.32,0,0,1-3.61-.37c-2.72-.45-4.32-1.33-5.37-2.93A8,8,0,0,1,14.12,29c0-.13-.08-.25-.11-.37l0-.06c-.07-.32-.14-.65-.19-1a18.66,18.66,0,0,1-.16-3.16,1.69,1.69,0,0,0,0-.23,5.23,5.23,0,0,1,.42-2.27,2.85,2.85,0,0,1,.82-1A5,5,0,0,1,17.1,20l.76-.1a63.36,63.36,0,0,1,6.78-.4h.53a25.92,25.92,0,0,1,8.2,1.18h0a7.76,7.76,0,0,1,2,.95,4.1,4.1,0,0,1,.78.71,4.51,4.51,0,0,1,1,2.83,12,12,0,0,1-.54,3.66A6.2,6.2,0,0,1,36,30.39a6.33,6.33,0,0,1-1.23,1.48,8.68,8.68,0,0,1-1.87,1.24A16.25,16.25,0,0,1,25.61,34.52ZM15,28.32c0,.12.08.25.11.38a7.42,7.42,0,0,0,.77,1.91c.87,1.33,2.27,2.07,4.67,2.48a31.17,31.17,0,0,0,3.48.36c.57,0,1.09,0,1.58,0h0a15.09,15.09,0,0,0,6.8-1.32,7.29,7.29,0,0,0,1.64-1.08,5.19,5.19,0,0,0,1-1.23,5.45,5.45,0,0,0,.53-1.26,10.93,10.93,0,0,0,.5-3.34,3.53,3.53,0,0,0-.73-2.21,3.3,3.3,0,0,0-.58-.53,7.33,7.33,0,0,0-1.75-.81h0a24.71,24.71,0,0,0-7.86-1.12h-.52A62.26,62.26,0,0,0,18,21l-.68.1a3.83,3.83,0,0,0-1.77.67,1.85,1.85,0,0,0-.52.63,4.25,4.25,0,0,0-.31,1.83c0,.08,0,.16,0,.24a17.36,17.36,0,0,0,.15,3C14.88,27.73,14.93,28,15,28.32Z"/><path class="cls-1" d="M25,33.14l-1-.67c-2.46-1.64-3.51-3.35-3.51-5.73V21.08l.25.33a2.77,2.77,0,0,0,2.17,1.11h0a2.8,2.8,0,0,0,2.18-1.11l.1-.13.11.12a2.87,2.87,0,0,0,4.3,0l.24-.26v5.44a5.92,5.92,0,0,1-1,3.43,8.71,8.71,0,0,1-2.71,2.43ZM20.74,21.86v4.88c0,2.28,1,3.92,3.39,5.5l.86.58,1-.61c2.52-1.56,3.59-3.24,3.59-5.63V21.81a3.31,3.31,0,0,1-2.13.83H27.2a3.22,3.22,0,0,1-2-.93,3.09,3.09,0,0,1-2.3,1.1h0A3,3,0,0,1,20.74,21.86Z"/><path class="cls-2" d="M23.11,26.1a.85.85,0,1,1,.85-.85A.85.85,0,0,1,23.11,26.1Zm0-1.5a.65.65,0,1,0,.65.65A.66.66,0,0,0,23.11,24.6Z"/><rect class="cls-2" x="23.03" y="23.48" width="0.2" height="1.02"/><rect class="cls-2" x="23.01" y="26" width="0.2" height="0.61"/><rect class="cls-2" x="23.47" y="24.2" width="1.01" height="0.2" transform="translate(-10.16 24.07) rotate(-45)"/><rect class="cls-2" x="21.96" y="26.01" width="0.83" height="0.2" transform="translate(-11.91 23.47) rotate(-45)"/><rect class="cls-2" x="21.63" y="25.15" width="0.73" height="0.2"/><rect class="cls-2" x="23.86" y="25.15" width="0.61" height="0.2"/><rect class="cls-2" x="22.14" y="23.93" width="0.2" height="0.92" transform="translate(-10.73 22.87) rotate(-45)"/><rect class="cls-2" x="23.78" y="25.7" width="0.2" height="0.82" transform="translate(-11.47 24.53) rotate(-45)"/><path class="cls-3" d="M25.84,25.63l-.19.57H25.4L26,24.37h.28l.63,1.83h-.26l-.19-.57Zm.6-.19-.18-.53a2.34,2.34,0,0,1-.09-.33h0c0,.11-.05.22-.09.33l-.18.53Z"/><path class="cls-3" d="M27.66,24.4a1.74,1.74,0,0,1,.43,0,.75.75,0,0,1,.5.13.38.38,0,0,1,.16.32.44.44,0,0,1-.31.41h0a.49.49,0,0,1,.38.46.51.51,0,0,1-.16.37.9.9,0,0,1-.63.17l-.37,0Zm.24.75h.21c.25,0,.4-.14.4-.31s-.16-.3-.4-.3a.84.84,0,0,0-.21,0Zm0,.87.2,0c.24,0,.47-.09.47-.36s-.22-.35-.48-.35H27.9Z"/><path class="cls-3" d="M25.23,30.42a4.64,4.64,0,0,1-3.29-1.37l0,0,0,0a4.66,4.66,0,0,1,6.59,0l0,0,0,0A4.65,4.65,0,0,1,25.23,30.42ZM22.05,29a4.58,4.58,0,0,0,6.37,0A4.56,4.56,0,0,0,22.05,29Z"/><path class="cls-3" d="M25.19,30.39A1.38,1.38,0,1,1,26.57,29,1.38,1.38,0,0,1,25.19,30.39Zm0-2.64A1.27,1.27,0,1,0,26.46,29,1.27,1.27,0,0,0,25.19,27.75Z"/><circle class="cls-3" cx="25.19" cy="29.02" r="0.64"/><circle class="cls-4" cx="25.51" cy="28.69" r="0.25"/></svg>