<svg id="Layer_1" data-name="Layer 1" xmlns="http://www.w3.org/2000/svg" viewBox="0 0 50 50"><defs><style>.cls-1{fill:#FFD700;}.cls-2{opacity:0.8;}.cls-3{fill:#595352;}.cls-4{fill:#857f7f;}.cls-5{fill:#7a7574;}.cls-6{fill:#cfe8f0;}</style></defs><path class="cls-1" d="M25.59,40.83a15.85,15.85,0,0,1-6.24-1.26,16,16,0,0,1-5.11-26.14A16.05,16.05,0,1,1,37,36.13a16.21,16.21,0,0,1-5.11,3.44A15.9,15.9,0,0,1,25.59,40.83Zm0-31.07a15,15,0,1,0,15,15A15,15,0,0,0,25.59,9.76Z"/><g class="cls-2"><path class="cls-3" d="M24.11,33.62h0l-1.6,0c-1.66,0-2.94-.14-3.55-.2-2.56-.24-4.06-.7-5-1.53a3.64,3.64,0,0,1-.83-1.15L13,30.5h0a4.72,4.72,0,0,1-.18-.53,5.62,5.62,0,0,1-.15-1.73v-.13A1.68,1.68,0,0,1,13,26.94a1.93,1.93,0,0,1,.67-.46,6.76,6.76,0,0,1,2-.43c.22,0,.47,0,.72-.06,1-.06,3.69-.22,6.73-.22h.52a43.4,43.4,0,0,1,8,.65h0a10.84,10.84,0,0,1,1.88.5,3.61,3.61,0,0,1,.68.35,1.78,1.78,0,0,1,.85,1.41,4,4,0,0,1-.53,2,2.52,2.52,0,0,1-.58.78,4.29,4.29,0,0,1-1.13.76,9.57,9.57,0,0,1-1.76.66A26.73,26.73,0,0,1,24.11,33.62Z"/></g><g class="cls-2"><path class="cls-4" d="M25.74,30.84h0l-1.61,0c-1.65,0-2.93-.15-3.55-.21-2.55-.24-4-.69-5-1.52a3.35,3.35,0,0,1-.83-1.15l-.12-.22h0a4.27,4.27,0,0,1-.18-.54,5.59,5.59,0,0,1-.16-1.72.62.62,0,0,0,0-.13,1.73,1.73,0,0,1,.36-1.16,2,2,0,0,1,.68-.45,6.72,6.72,0,0,1,2-.44l.72-.06c1-.06,3.68-.22,6.72-.22h.52a44.41,44.41,0,0,1,8,.65h0a11.26,11.26,0,0,1,1.88.49,3.32,3.32,0,0,1,.68.35,1.78,1.78,0,0,1,.85,1.42,4,4,0,0,1-.52,2,2.65,2.65,0,0,1-.58.78,5,5,0,0,1-1.13.76,9.16,9.16,0,0,1-1.76.65A26.36,26.36,0,0,1,25.74,30.84Z"/></g><g class="cls-2"><path class="cls-5" d="M27.08,28.58h0l-1.61,0c-1.65,0-2.93-.15-3.54-.21-2.56-.24-4.06-.7-5-1.52a3.68,3.68,0,0,1-.83-1.16L16,25.46h0a4.27,4.27,0,0,1-.18-.54,5.62,5.62,0,0,1-.15-1.73v-.13A1.68,1.68,0,0,1,16,21.9a1.93,1.93,0,0,1,.67-.46,7.1,7.1,0,0,1,2-.43l.72-.06c1-.06,3.69-.22,6.72-.22h.53a43.4,43.4,0,0,1,8,.65h0a11.82,11.82,0,0,1,1.88.5,3.23,3.23,0,0,1,.67.35,1.78,1.78,0,0,1,.86,1.42,4,4,0,0,1-.53,2,2.78,2.78,0,0,1-.58.78,4.83,4.83,0,0,1-1.13.76,10.39,10.39,0,0,1-1.76.65A26.31,26.31,0,0,1,27.08,28.58Z"/></g><g class="cls-2"><path class="cls-6" d="M28.7,26.53h0l-1.6,0c-1.65-.05-2.93-.15-3.55-.21-2.55-.24-4.05-.7-5-1.52a3.38,3.38,0,0,1-.83-1.16l-.12-.21h0a4.27,4.27,0,0,1-.18-.54,5.67,5.67,0,0,1-.16-1.73.53.53,0,0,0,0-.13,1.72,1.72,0,0,1,.36-1.15,2,2,0,0,1,.68-.46,7.1,7.1,0,0,1,2-.43L21,18.9c1-.06,3.68-.22,6.72-.22h.52a43.52,43.52,0,0,1,8,.65h0a11.28,11.28,0,0,1,1.88.5,3.32,3.32,0,0,1,.68.35,1.8,1.8,0,0,1,.85,1.42,4,4,0,0,1-.52,2,2.66,2.66,0,0,1-.59.78,5,5,0,0,1-1.12.76,11.07,11.07,0,0,1-1.76.65A26.39,26.39,0,0,1,28.7,26.53Z"/></g></svg>