<svg id="Layer_1" data-name="Layer 1" xmlns="http://www.w3.org/2000/svg" viewBox="0 0 50 50"><defs><style>.cls-1{fill:#25221f;}.cls-2{fill:#2b2523;}.cls-3{fill:#fff;}.cls-4{fill:#e3af00;}</style></defs><rect class="cls-1" x="25.22" y="12.79" width="0.89" height="30.26" transform="translate(32.66 -9.36) rotate(53.21)"/><path class="cls-2" d="M13.76,37.75l-.89-1.19.24-.17,24.47-18.3.88,1.18Zm-.07-1.07.18.24L37.64,19.15l-.18-.24Z"/><path class="cls-2" d="M25,43.19a15.91,15.91,0,0,1-6.25-1.27,15.73,15.73,0,0,1-5.1-3.44,16,16,0,0,1,0-22.7,16.06,16.06,0,0,1,26.14,17.6,15.89,15.89,0,0,1-3.44,5.1,15.73,15.73,0,0,1-5.1,3.44A15.91,15.91,0,0,1,25,43.19Zm0-31.07a15,15,0,1,0,15,15A15,15,0,0,0,25,12.12Z"/><path class="cls-3" d="M25.61,35.05h0c-.5,0-1,0-1.6,0a32.72,32.72,0,0,1-3.55-.36c-2.55-.43-4.05-1.24-5-2.71a7.13,7.13,0,0,1-.83-2.05l-.12-.38h0v0c-.07-.3-.13-.62-.18-.95a17.59,17.59,0,0,1-.16-3.07,1.69,1.69,0,0,0,0-.23,4.89,4.89,0,0,1,.36-2.05,2.5,2.5,0,0,1,.68-.81,4.6,4.6,0,0,1,2-.77l.73-.1a62.29,62.29,0,0,1,6.72-.4h.52a25,25,0,0,1,8,1.15h0a7,7,0,0,1,1.88.88,3.37,3.37,0,0,1,.68.62,4,4,0,0,1,.85,2.51,11.68,11.68,0,0,1-.52,3.51,5.28,5.28,0,0,1-.59,1.38,6,6,0,0,1-1.12,1.36,8.8,8.8,0,0,1-1.76,1.16A15.81,15.81,0,0,1,25.61,35.05Z"/><path class="cls-2" d="M25.61,35.55h0c-.51,0-1,0-1.62,0a28.54,28.54,0,0,1-3.61-.37c-2.71-.45-4.31-1.33-5.35-2.93a7.86,7.86,0,0,1-.9-2.18c0-.13-.07-.25-.11-.37V29.6a9.85,9.85,0,0,1-.19-1,17.6,17.6,0,0,1-.16-3.15c0-.08,0-.15,0-.23A5.23,5.23,0,0,1,14.09,23a2.88,2.88,0,0,1,.81-1,4.94,4.94,0,0,1,2.21-.87c.23-.05.49-.08.76-.11a62.92,62.92,0,0,1,6.77-.4h.53a25.76,25.76,0,0,1,8.2,1.17h0a7.76,7.76,0,0,1,2,.95,3.53,3.53,0,0,1,.78.71,4.51,4.51,0,0,1,1,2.82,12,12,0,0,1-.54,3.65A6.1,6.1,0,0,1,36,31.43a6.54,6.54,0,0,1-1.23,1.47,8.56,8.56,0,0,1-1.87,1.24A16.17,16.17,0,0,1,25.61,35.55ZM15,29.37l.12.38a6.66,6.66,0,0,0,.77,1.91c.87,1.34,2.27,2.09,4.68,2.49a31.17,31.17,0,0,0,3.48.36c.57,0,1.09,0,1.58,0h0a15.28,15.28,0,0,0,6.81-1.31,7.67,7.67,0,0,0,1.64-1.09,5.08,5.08,0,0,0,1.57-2.5,11,11,0,0,0,.5-3.35,3.53,3.53,0,0,0-.74-2.21,2.73,2.73,0,0,0-.58-.54,7.23,7.23,0,0,0-1.76-.81h0a24.82,24.82,0,0,0-7.87-1.12h-.52A62.26,62.26,0,0,0,18,22c-.24,0-.47.06-.69.09a4.12,4.12,0,0,0-1.77.68,2,2,0,0,0-.53.64,4.54,4.54,0,0,0-.31,1.84,1.77,1.77,0,0,1,0,.23,17.42,17.42,0,0,0,.15,3C14.86,28.77,14.92,29.08,15,29.37Z"/><path class="cls-4" d="M17.31,23.58c2.79,1.13,6.24,3.75,7,6.8a4.58,4.58,0,0,1,.1,1.43A6.17,6.17,0,0,0,24,30.45c-1.16-2.9-4.22-5.1-6.72-6.87Z"/><path class="cls-4" d="M26.71,30.26a8.2,8.2,0,0,1,1-3,6.23,6.23,0,0,1,4.78-3.42c-.16.07-.36.14-.52.22l-.26.11-.37.19-.36.21a11.71,11.71,0,0,0-4.27,5.68Z"/><path class="cls-4" d="M16.53,28.49c2.86-1,7-1.37,9.86-.17a6.19,6.19,0,0,1,1.25.71,10.28,10.28,0,0,0-2-.63,18.16,18.16,0,0,0-3.29-.32,47,47,0,0,0-5.8.41Z"/><path class="cls-4" d="M19.46,33.32c3.2-2.7,8.51-3.88,12-1.13a12.05,12.05,0,0,0-1.5-.51c-3.56-1-7.27.14-10.53,1.64Z"/><path class="cls-4" d="M23.71,24.4c.1-.24.49-.3.71-.34a6.54,6.54,0,0,1,2.41.24,8.29,8.29,0,0,1,5.92,5.12A5.72,5.72,0,0,1,33,31a9.32,9.32,0,0,0-.37-1.13c-1.22-3.05-4.33-4.95-7.46-5.58-.35-.06-1.28-.22-1.5.11Z"/></svg>