<svg id="Layer_1" data-name="Layer 1" xmlns="http://www.w3.org/2000/svg" viewBox="0 0 50 50"><defs><style>.cls-1{fill:#2b2523;}.cls-2{fill:#e3af00;}</style></defs><path class="cls-1" d="M25.31,36.53h0c-.72,0-1.47,0-2.29-.06A41.63,41.63,0,0,1,17.94,36c-3.8-.64-6.06-1.87-7.53-4.12a10.91,10.91,0,0,1-1.25-3.07c-.06-.18-.11-.35-.16-.53l0-.08c-.11-.44-.19-.91-.27-1.4a25.24,25.24,0,0,1-.22-4.44c0-.11,0-.21,0-.32a7.43,7.43,0,0,1,.59-3.19,4,4,0,0,1,1.14-1.37,7,7,0,0,1,3.11-1.23c.33-.06.69-.11,1.07-.15a90.16,90.16,0,0,1,9.53-.56h.74a36.1,36.1,0,0,1,11.54,1.66h0a11.12,11.12,0,0,1,2.82,1.33,5.79,5.79,0,0,1,1.09,1,6.36,6.36,0,0,1,1.36,4,17.18,17.18,0,0,1-.76,5.15,8.59,8.59,0,0,1-.9,2.12,9.07,9.07,0,0,1-1.72,2.07,12.38,12.38,0,0,1-2.63,1.74A22.77,22.77,0,0,1,25.31,36.53Zm-15-8.7c.06.17.11.35.16.53a10.1,10.1,0,0,0,1.08,2.7c1.24,1.88,3.21,2.93,6.59,3.5a41.71,41.71,0,0,0,4.91.5c.79,0,1.52.06,2.22.06h0a21.41,21.41,0,0,0,9.57-1.85,10.73,10.73,0,0,0,2.32-1.53A7.14,7.14,0,0,0,38.65,30a7.58,7.58,0,0,0,.75-1.79,15.62,15.62,0,0,0,.71-4.7,5,5,0,0,0-1-3.12,3.94,3.94,0,0,0-.82-.75,10.11,10.11,0,0,0-2.47-1.15h0a34.64,34.64,0,0,0-11.07-1.58h-.73a88.46,88.46,0,0,0-9.38.55c-.35,0-.68.08-1,.13a5.68,5.68,0,0,0-2.49.95,2.57,2.57,0,0,0-.75.9A6.1,6.1,0,0,0,9.91,22c0,.11,0,.22,0,.33a24.23,24.23,0,0,0,.21,4.19C10.18,27,10.26,27.42,10.35,27.83Z"/><path class="cls-2" d="M13.63,19.68c3.92,1.6,8.77,5.27,9.8,9.57a6.21,6.21,0,0,1,.14,2,8,8,0,0,0-.49-1.9c-1.63-4.09-5.94-7.19-9.45-9.68Z"/><path class="cls-2" d="M26.85,29.08a11.41,11.41,0,0,1,1.41-4.2A8.75,8.75,0,0,1,35,20.07c-.24.1-.51.19-.74.3l-.36.16-.53.27-.5.29c-2.93,1.81-4.71,4.89-6,8Z"/><path class="cls-2" d="M12.53,26.6c4-1.43,9.88-1.94,13.87-.25a8.63,8.63,0,0,1,1.75,1,14.76,14.76,0,0,0-2.83-.89A24.79,24.79,0,0,0,20.69,26a63.7,63.7,0,0,0-8.16.58Z"/><path class="cls-2" d="M16.65,33.39c4.51-3.8,12-5.45,16.92-1.59a18.6,18.6,0,0,0-2.1-.72c-5-1.37-10.23.2-14.82,2.31Z"/><path class="cls-2" d="M22.63,20.83c.14-.34.69-.42,1-.47A9.29,9.29,0,0,1,27,20.7c3.64,1,7.15,3.5,8.33,7.2a8.5,8.5,0,0,1,.4,2.23,12.84,12.84,0,0,0-.52-1.59c-1.72-4.3-6.1-7-10.5-7.86-.5-.08-1.81-.3-2.11.15Z"/></svg>