<svg id="Layer_1" data-name="Layer 1" xmlns="http://www.w3.org/2000/svg" viewBox="0 0 50 50"><defs><style>.cls-1{fill:#595352;}.cls-1,.cls-2,.cls-3,.cls-4{opacity:0.8;}.cls-2{fill:#857f7f;}.cls-3{fill:#7a7574;}.cls-4{fill:#cfe8f0;}</style></defs><path class="cls-1" d="M21.88,37h0l-2.41,0c-2.48-.07-4.4-.22-5.33-.31-3.84-.36-6.09-1-7.54-2.29a5.16,5.16,0,0,1-1.24-1.73l-.17-.32h0v0a5,5,0,0,1-.27-.8,8.46,8.46,0,0,1-.24-2.59,1.34,1.34,0,0,0,0-.2A2.55,2.55,0,0,1,5.23,27a2.9,2.9,0,0,1,1-.69,10.24,10.24,0,0,1,3-.65l1.09-.09c1.51-.09,5.53-.33,10.1-.33h.78a65.94,65.94,0,0,1,12.07,1h0a16.91,16.91,0,0,1,2.82.75,5.11,5.11,0,0,1,1,.52,2.69,2.69,0,0,1,1.28,2.13,5.89,5.89,0,0,1-.79,3,3.85,3.85,0,0,1-.87,1.17,7.1,7.1,0,0,1-1.7,1.15,16.18,16.18,0,0,1-2.64,1A40.07,40.07,0,0,1,21.88,37Z"/><path class="cls-2" d="M24.32,32.81h0l-2.41,0c-2.48-.07-4.4-.22-5.33-.31-3.84-.36-6.09-1-7.54-2.29A5.46,5.46,0,0,1,7.8,28.45c-.06-.11-.11-.22-.17-.32h0a5.5,5.5,0,0,1-.27-.81,8.41,8.41,0,0,1-.23-2.59,1.34,1.34,0,0,1,0-.2,2.59,2.59,0,0,1,.54-1.73,2.85,2.85,0,0,1,1-.69,10.41,10.41,0,0,1,3-.65l1.09-.08c1.51-.1,5.53-.34,10.1-.34h.78a65.65,65.65,0,0,1,12.07,1h0a17.29,17.29,0,0,1,2.83.75,5.39,5.39,0,0,1,1,.52,2.69,2.69,0,0,1,1.28,2.13,6,6,0,0,1-.79,3,4.1,4.1,0,0,1-.88,1.17,7.1,7.1,0,0,1-1.7,1.15,14.4,14.4,0,0,1-2.63,1A39.74,39.74,0,0,1,24.32,32.81Z"/><path class="cls-3" d="M26.34,29.41h0l-2.41,0c-2.48-.06-4.4-.22-5.33-.31-3.84-.36-6.09-1.05-7.54-2.29a5.16,5.16,0,0,1-1.24-1.73l-.17-.32h0a5.5,5.5,0,0,1-.27-.81,8.46,8.46,0,0,1-.24-2.59c0-.07,0-.13,0-.2a2.49,2.49,0,0,1,.54-1.73,2.76,2.76,0,0,1,1-.68,10.2,10.2,0,0,1,3-.66L14.78,18c1.51-.09,5.53-.34,10.1-.34h.78a65,65,0,0,1,12.07,1h0a16.91,16.91,0,0,1,2.82.75,4.64,4.64,0,0,1,1,.53A2.68,2.68,0,0,1,42.89,22a5.86,5.86,0,0,1-.79,3,4,4,0,0,1-.87,1.18,7.09,7.09,0,0,1-1.7,1.14,14.24,14.24,0,0,1-2.64,1A39.66,39.66,0,0,1,26.34,29.41Z"/><path class="cls-4" d="M28.78,26.33h0l-2.41,0C23.89,26.24,22,26.08,21,26c-3.84-.36-6.09-1-7.54-2.29A5.46,5.46,0,0,1,12.26,22l-.17-.32h0a5.5,5.5,0,0,1-.27-.81,8.41,8.41,0,0,1-.23-2.59,1.34,1.34,0,0,1,0-.2,2.59,2.59,0,0,1,.54-1.73,2.72,2.72,0,0,1,1-.68,10,10,0,0,1,3-.66l1.09-.08c1.51-.09,5.53-.34,10.1-.34h.78a64.9,64.9,0,0,1,12.07,1h0a16.33,16.33,0,0,1,2.83.74,4.88,4.88,0,0,1,1,.53,2.68,2.68,0,0,1,1.28,2.12,6,6,0,0,1-.79,3,4.25,4.25,0,0,1-.88,1.18A7.22,7.22,0,0,1,42,24.2a14.8,14.8,0,0,1-2.64,1A39.74,39.74,0,0,1,28.78,26.33Z"/></svg>