<svg id="Layer_1" data-name="Layer 1" xmlns="http://www.w3.org/2000/svg" viewBox="0 0 50 50"><defs><style>.cls-1{fill:#FFD700;}.cls-2{fill:#e3af00;}</style></defs><path class="cls-1" d="M25,43.75a15.91,15.91,0,0,1-6.25-1.27A15.73,15.73,0,0,1,13.65,39a16,16,0,0,1,0-22.7,16.06,16.06,0,0,1,26.14,17.6A15.89,15.89,0,0,1,36.35,39a15.73,15.73,0,0,1-5.1,3.44A15.91,15.91,0,0,1,25,43.75Zm0-31.07a15,15,0,1,0,15,15A15,15,0,0,0,25,12.68Z"/><path class="cls-1" d="M25.61,36.13h0c-.51,0-1,0-1.62,0a32.71,32.71,0,0,1-3.61-.37c-2.72-.46-4.32-1.34-5.37-2.94a7.83,7.83,0,0,1-.89-2.18c0-.13-.08-.25-.11-.38l0-.06c-.07-.31-.14-.65-.19-1A18.71,18.71,0,0,1,13.64,26a1.77,1.77,0,0,0,0-.23,5.23,5.23,0,0,1,.42-2.27,3,3,0,0,1,.82-1,5.06,5.06,0,0,1,2.21-.87l.76-.11a67.12,67.12,0,0,1,6.78-.39h.53a25.64,25.64,0,0,1,8.2,1.18h0a8.06,8.06,0,0,1,2,.94,3.84,3.84,0,0,1,.78.72,4.49,4.49,0,0,1,1,2.83,12,12,0,0,1-.54,3.66A6.2,6.2,0,0,1,36,32a6.09,6.09,0,0,1-1.23,1.47,8,8,0,0,1-1.87,1.24A16.11,16.11,0,0,1,25.61,36.13ZM15,29.92c0,.13.08.25.11.38a7.15,7.15,0,0,0,.77,1.91c.87,1.34,2.27,2.08,4.67,2.49a29.48,29.48,0,0,0,3.48.35c.57,0,1.09,0,1.58,0h0a15.23,15.23,0,0,0,6.8-1.31,7.64,7.64,0,0,0,1.64-1.08,5.39,5.39,0,0,0,1-1.23,5.45,5.45,0,0,0,.53-1.26,10.93,10.93,0,0,0,.5-3.34,3.5,3.5,0,0,0-.73-2.21,3.3,3.3,0,0,0-.58-.53,7,7,0,0,0-1.75-.81h0a24.43,24.43,0,0,0-7.86-1.12h-.52a61.46,61.46,0,0,0-6.67.4,6.6,6.6,0,0,0-.68.09,4.07,4.07,0,0,0-1.77.67A1.88,1.88,0,0,0,15,24a4.23,4.23,0,0,0-.31,1.83c0,.08,0,.16,0,.23a17.42,17.42,0,0,0,.15,3C14.88,29.33,14.93,29.64,15,29.92Z"/><rect class="cls-1" x="17.45" y="31.49" width="14.21" height="0.57"/><polygon class="cls-2" points="24.95 31.63 19.09 27.52 19.21 27.34 24.94 31.36 29.83 27.34 29.97 27.51 24.95 31.63"/><path class="cls-2" d="M30.92,26.58a6.84,6.84,0,0,0-.79,2l-.37-1-1-.56A6.83,6.83,0,0,0,30.92,26.58Z"/><path class="cls-2" d="M24.53,29.61A1.42,1.42,0,0,1,23.36,29a1.3,1.3,0,0,1,0-1.44l1.17-1.71,1.17,1.71a1.26,1.26,0,0,1,0,1.44A1.4,1.4,0,0,1,24.53,29.61Zm0-3.15-.88,1.29a.9.9,0,0,0,0,1,1.06,1.06,0,0,0,1.76,0h0a.9.9,0,0,0,0-1Z"/><path class="cls-2" d="M27.13,26.93A1.42,1.42,0,0,1,26,26.31a1.28,1.28,0,0,1,0-1.43l1.17-1.72,1.17,1.72a1.28,1.28,0,0,1,0,1.43h0A1.42,1.42,0,0,1,27.13,26.93Zm0-3.15-.88,1.29a.92.92,0,0,0,0,1.05,1.07,1.07,0,0,0,1.76,0,.92.92,0,0,0,0-1.05Z"/><path class="cls-2" d="M22.25,26.53a1,1,0,0,1-.78-.41.88.88,0,0,1,0-1L22.25,24,23,25.16a.84.84,0,0,1,0,1h0A1,1,0,0,1,22.25,26.53Zm0-1.9-.49.72a.51.51,0,0,0,0,.58.59.59,0,0,0,1,0h0a.51.51,0,0,0,0-.58Z"/></svg>