<svg id="Layer_1" data-name="Layer 1" xmlns="http://www.w3.org/2000/svg" viewBox="0 0 50 50"><defs><style>.cls-1{fill:#2b2523;}.cls-2{fill:#e3af00;}.cls-3{fill:#13110c;}</style></defs><path class="cls-1" d="M25,43.93a16,16,0,0,1-11.35-27.4,16.05,16.05,0,1,1,22.7,22.7A16,16,0,0,1,25,43.93Zm0-31.06a15,15,0,1,0,15,15A15,15,0,0,0,25,12.87Z"/><path class="cls-1" d="M25.61,36.32h0c-.51,0-1,0-1.62,0a32.71,32.71,0,0,1-3.61-.37C17.66,35.45,16.06,34.57,15,33a7.77,7.77,0,0,1-.89-2.19c0-.12-.08-.25-.11-.37l0-.06c-.07-.31-.14-.65-.19-1a18.66,18.66,0,0,1-.16-3.16,1.48,1.48,0,0,0,0-.21v0a5.26,5.26,0,0,1,.42-2.27,2.85,2.85,0,0,1,.82-1,4.94,4.94,0,0,1,2.21-.87l.76-.11a63.36,63.36,0,0,1,6.78-.4h.53a25.36,25.36,0,0,1,8.2,1.18h0a8.1,8.1,0,0,1,2,.95,3.84,3.84,0,0,1,.78.72,4.48,4.48,0,0,1,1,2.82,12.13,12.13,0,0,1-.54,3.67A6.2,6.2,0,0,1,36,32.19a6.29,6.29,0,0,1-1.23,1.47,8.33,8.33,0,0,1-1.87,1.24A16.24,16.24,0,0,1,25.61,36.32ZM15,30.11c0,.12.08.25.11.38a7.28,7.28,0,0,0,.77,1.91c.87,1.34,2.27,2.08,4.67,2.48a28.87,28.87,0,0,0,3.48.36c.57,0,1.09,0,1.58,0h0A15.23,15.23,0,0,0,32.41,34a7.67,7.67,0,0,0,1.64-1.09,5.35,5.35,0,0,0,1-1.22,5.49,5.49,0,0,0,.53-1.27,10.89,10.89,0,0,0,.5-3.34,3.48,3.48,0,0,0-.73-2.2,2.67,2.67,0,0,0-.58-.53,7,7,0,0,0-1.75-.82h0a25,25,0,0,0-7.86-1.12h-.52a65.11,65.11,0,0,0-6.67.39l-.68.1a4.07,4.07,0,0,0-1.77.67,2,2,0,0,0-.52.63A4.36,4.36,0,0,0,14.69,26v0c0,.07,0,.15,0,.22a17.31,17.31,0,0,0,.15,3C14.88,29.52,14.93,29.82,15,30.11Z"/><path class="cls-1" d="M25,34.93l-1-.67c-2.46-1.63-3.51-3.35-3.51-5.73V22.87l.25.34a2.84,2.84,0,0,0,2.17,1.11h0a2.83,2.83,0,0,0,2.18-1.11l.1-.14.11.13a3,3,0,0,0,1.94.95,3,3,0,0,0,2.36-.95l.24-.26v5.44a5.91,5.91,0,0,1-1,3.42,8.85,8.85,0,0,1-2.71,2.44L26,34.12l.08.12ZM20.74,23.65v4.88c0,2.28,1,3.93,3.39,5.51l.86.57,1-.6c2.52-1.56,3.59-3.25,3.59-5.63V23.61a3.31,3.31,0,0,1-2.13.82H27.2a3.22,3.22,0,0,1-2-.93,3.05,3.05,0,0,1-2.3,1.1h0A3,3,0,0,1,20.74,23.65Z"/><path class="cls-2" d="M25,28.36a1,1,0,1,1,1-1A1,1,0,0,1,25,28.36Zm0-1.8a.78.78,0,1,0,.78.78A.78.78,0,0,0,25,26.56Z"/><rect class="cls-2" x="24.89" y="25.21" width="0.24" height="1.23"/><rect class="cls-2" x="24.87" y="28.24" width="0.24" height="0.74"/><rect class="cls-2" x="25.42" y="26.07" width="1.22" height="0.24" transform="translate(-10.9 26.08) rotate(-45)"/><rect class="cls-2" x="23.6" y="28.25" width="1" height="0.24" transform="translate(-13 25.35) rotate(-45)"/><rect class="cls-2" x="23.21" y="27.22" width="0.88" height="0.24"/><rect class="cls-2" x="25.89" y="27.22" width="0.74" height="0.24"/><rect class="cls-2" x="23.82" y="25.75" width="0.24" height="1.1" transform="translate(-11.58 24.63) rotate(-45)"/><rect class="cls-2" x="25.79" y="27.87" width="0.24" height="0.98" transform="translate(-12.47 26.63) rotate(-45)"/><path class="cls-3" d="M23.27,29.59V31c0,.51.23.73.54.73s.56-.22.56-.73V29.59h.31V31c0,.71-.38,1-.88,1S23,31.68,23,31V29.59Z"/><path class="cls-3" d="M26.16,31.91l-.76-2.32h.32l.36,1.15c.1.31.19.59.25.86h0c.06-.27.16-.56.26-.86l.4-1.15h.32l-.83,2.32Z"/></svg>