<?xml version="1.0" encoding="UTF-8" standalone="no"?>
<svg
   viewBox="0 0 512 360"
   version="1.1"
   id="svg689"
   sodipodi:docname="thickness-2.svg"
   width="512"
   height="360"
   inkscape:version="1.2.2 (732a01da63, 2022-12-09)"
   xml:space="preserve"
   xmlns:inkscape="http://www.inkscape.org/namespaces/inkscape"
   xmlns:sodipodi="http://sodipodi.sourceforge.net/DTD/sodipodi-0.dtd"
   xmlns="http://www.w3.org/2000/svg"
   xmlns:svg="http://www.w3.org/2000/svg"
   xmlns:rdf="http://www.w3.org/1999/02/22-rdf-syntax-ns#"
   xmlns:cc="http://creativecommons.org/ns#"
   xmlns:dc="http://purl.org/dc/elements/1.1/"><sodipodi:namedview
     id="namedview691"
     pagecolor="#ffffff"
     bordercolor="#000000"
     borderopacity="0.25"
     inkscape:showpageshadow="2"
     inkscape:pageopacity="0.0"
     inkscape:pagecheckerboard="0"
     inkscape:deskcolor="#d1d1d1"
     showgrid="false"
     inkscape:zoom="1.4763616"
     inkscape:cx="214.71704"
     inkscape:cy="132.08146"
     inkscape:window-width="2880"
     inkscape:window-height="1514"
     inkscape:window-x="-11"
     inkscape:window-y="-11"
     inkscape:window-maximized="1"
     inkscape:current-layer="svg689" /><defs
     id="defs411"><style
       id="style409">.cls-1{fill:#addbec;}.cls-2,.cls-3{fill:none;stroke:#4d4d4d;stroke-miterlimit:10;}.cls-2{stroke-width:3.27px;}.cls-3{stroke-width:3.27px;stroke-dasharray:9 6;}</style></defs><title
     id="title413">02-ThicknessTavola disegno 1</title><path
     class="cls-1"
     d="m 385.83374,155.34997 c 0,0 -41.83504,-68.992017 -124.07827,-68.992017 -82.24323,0 -125.45801,68.992017 -125.45801,68.992017 v 26.05978 c 0,0 62.96446,-39.72539 125.45801,-39.72539 64.16997,0 124.07827,39.72539 124.07827,39.72539 z"
     id="path415"
     style="stroke-width:1.5;stroke-dasharray:none;stroke:#44a7ce;stroke-opacity:1" /><line
     class="cls-2"
     x1="391.23499"
     y1="160.01663"
     x2="391.23499"
     y2="177.1622"
     id="line417"
     style="stroke-width:1.5;stroke-dasharray:none" /><polyline
     class="cls-2"
     points="1253.19 477.02 1261.04 464.9 1268.57 477.37"
     id="polyline419"
     transform="matrix(0.47090313,0,0,0.47090313,-202.51734,-60.563824)" /><polyline
     class="cls-2"
     points="1253.19 496.19 1261.04 508.31 1268.57 495.84"
     id="polyline421"
     transform="matrix(0.47090313,0,0,0.47090313,-202.51734,-60.563824)" /><path
     d="m 26.214435,25.733884 6.569098,16.392138 6.56439,-16.392138 h 3.437593 V 45.822611 H 40.134331 V 38.00091 L 40.38391,29.557617 33.791266,45.822611 H 31.761674 L 25.16903,29.599998 25.428027,38.00091 v 7.821701 H 22.781551 V 25.733884 Z"
     id="path432"
     style="stroke-width:0.470903" /><path
     d="m 56.276891,45.822611 a 5.3117873,5.3117873 0 0 1 -0.357887,-1.572816 5.6932188,5.6932188 0 0 1 -4.238128,1.850649 5.3023692,5.3023692 0 0 1 -3.625954,-1.247893 4.0450579,4.0450579 0 0 1 -1.412709,-3.169178 4.2381282,4.2381282 0 0 1 1.775304,-3.621245 q 1.770596,-1.285566 4.986864,-1.290275 h 2.48166 v -1.172549 a 2.8678001,2.8678001 0 0 0 -0.800535,-2.128482 3.1974323,3.1974323 0 0 0 -2.354516,-0.795826 3.7107167,3.7107167 0 0 0 -2.288589,0.692227 2.0201744,2.0201744 0 0 0 -0.941806,1.666997 h -2.566423 a 3.5176464,3.5176464 0 0 1 0.791118,-2.156736 5.4059679,5.4059679 0 0 1 2.152027,-1.65287 7.3037075,7.3037075 0 0 1 2.985526,-0.602756 q 2.585258,0 4.045058,1.290275 a 4.6478139,4.6478139 0 0 1 1.516308,3.550609 v 6.870477 a 8.4150389,8.4150389 0 0 0 0.522702,3.268068 v 0.221324 z m -4.238129,-1.94483 a 4.4688707,4.4688707 0 0 0 2.274463,-0.621592 3.767225,3.767225 0 0 0 1.558689,-1.615198 v -3.06087 h -2.001338 q -4.709032,0 -4.709032,2.745365 a 2.3168434,2.3168434 0 0 0 0.800536,1.883613 3.0702884,3.0702884 0 0 0 2.081391,0.668682 z"
     id="path434"
     style="stroke-width:0.470903" /><path
     d="m 67.437295,36.343331 3.296322,-5.448349 h 2.980816 l -4.869138,7.383761 5.033955,7.53445 h -2.952563 l -3.447011,-5.584911 -3.465847,5.594329 h -2.96669 l 5.033955,-7.53445 -4.883266,-7.383761 h 2.952563 z"
     id="path436"
     style="stroke-width:0.470903" /><path
     d="m 76.445672,26.934687 a 1.50689,1.50689 0 0 1 0.381431,-1.045405 1.4127094,1.4127094 0 0 1 1.125459,-0.428522 1.4409636,1.4409636 0 0 1 1.130167,0.428522 1.50689,1.50689 0 0 1 0.386141,1.045405 1.3797462,1.3797462 0 0 1 -1.516308,1.450381 1.4456726,1.4456726 0 0 1 -1.125459,-0.414395 1.4739268,1.4739268 0 0 1 -0.381431,-1.035986 z m 2.759492,18.887924 H 76.652869 V 30.894982 h 2.552295 z"
     id="path438"
     style="stroke-width:0.470903" /><path
     d="m 85.675373,30.894982 0.07064,1.657579 a 5.5001486,5.5001486 0 0 1 4.42649,-1.930703 q 3.136215,0 4.238128,2.396897 a 5.5519479,5.5519479 0 0 1 4.760831,-2.396897 q 4.916228,0 4.996278,5.179935 v 10.001982 h -2.5523 v -9.832457 a 3.4375928,3.4375928 0 0 0 -0.7299,-2.392188 q -0.7346,-0.791118 -2.458105,-0.791118 a 3.2963219,3.2963219 0 0 0 -3.447011,3.131506 v 9.888966 h -2.566422 v -9.766531 q 0,-3.253941 -3.188014,-3.253941 -2.514623,0 -3.437593,2.137901 V 45.822611 H 83.273767 V 30.894982 Z"
     id="path440"
     style="stroke-width:0.470903" /><path
     d="m 117.26826,44.348684 q -1.49276,1.75176 -4.37469,1.75176 c -1.58694,0 -2.80187,-0.470903 -3.63537,-1.389164 -0.8335,-0.918261 -1.2526,-2.293299 -1.26202,-4.101567 v -9.714731 h 2.5523 v 9.644096 q 0,3.390503 2.75949,3.395212 2.92431,0 3.89437,-2.180282 V 30.894982 h 2.55229 v 14.927629 h -2.42986 z"
     id="path442"
     style="stroke-width:0.470903" /><path
     d="m 126.03177,30.894982 0.0659,1.657579 a 5.5095666,5.5095666 0 0 1 4.4312,-1.930703 q 3.12679,0 4.23812,2.396897 a 5.5519479,5.5519479 0 0 1 4.76083,-2.396897 q 4.91152,0 4.99158,5.179935 v 10.001982 h -2.5523 v -9.832457 a 3.4375928,3.4375928 0 0 0 -0.7299,-2.392188 c -0.4709,-0.527412 -1.3044,-0.791118 -2.45811,-0.791118 a 3.3905025,3.3905025 0 0 0 -2.35452,0.847626 3.4375928,3.4375928 0 0 0 -1.08778,2.28388 v 9.888966 h -2.56643 v -9.766531 q 0,-3.253941 -3.18801,-3.253941 -2.5052,0 -3.43288,2.137901 v 10.896698 h -2.5523 V 30.894982 Z"
     id="path444"
     style="stroke-width:0.470903" /><path
     d="m 171.59636,45.822611 a 5.4671853,5.4671853 0 0 1 -0.35789,-1.572816 5.6932188,5.6932188 0 0 1 -4.23813,1.850649 5.2788241,5.2788241 0 0 1 -3.62124,-1.247893 4.0356398,4.0356398 0 0 1 -1.41271,-3.169178 4.2381282,4.2381282 0 0 1 1.7753,-3.621245 q 1.7706,-1.285566 4.98687,-1.290275 h 2.48166 v -1.172549 a 2.8254188,2.8254188 0 0 0 -0.80054,-2.128482 3.1974323,3.1974323 0 0 0 -2.35451,-0.795826 3.7107167,3.7107167 0 0 0 -2.28859,0.692227 2.0201744,2.0201744 0 0 0 -0.94181,1.666997 h -2.56642 a 3.5176464,3.5176464 0 0 1 0.79112,-2.156736 5.4389312,5.4389312 0 0 1 2.15202,-1.65287 7.3272527,7.3272527 0 0 1 2.99024,-0.602756 q 2.57584,0 4.04035,1.290275 a 4.6336868,4.6336868 0 0 1 1.51631,3.550609 v 6.870477 a 8.3208583,8.3208583 0 0 0 0.52741,3.268068 v 0.221324 z m -4.23813,-1.94483 a 4.4688707,4.4688707 0 0 0 2.27446,-0.621592 3.7248438,3.7248438 0 0 0 1.55869,-1.615198 v -3.06087 h -1.99663 q -4.70903,0 -4.70903,2.745365 a 2.3168434,2.3168434 0 0 0 0.80054,1.883613 3.0797065,3.0797065 0 0 0 2.07668,0.668682 z"
     id="path446"
     style="stroke-width:0.470903" /><path
     d="m 180.1668,30.894982 0.08,1.883612 a 5.4342221,5.4342221 0 0 1 4.46887,-2.152027 q 4.70903,0 4.77496,5.335333 v 9.86542 h -2.57113 v -9.888966 q 0,-1.610488 -0.73932,-2.382769 c -0.47091,-0.517994 -1.23377,-0.772282 -2.25563,-0.772282 a 3.6824625,3.6824625 0 0 0 -2.18028,0.659265 4.5347971,4.5347971 0 0 0 -1.4598,1.737632 v 10.637702 h -2.55229 V 30.890273 Z"
     id="path448"
     style="stroke-width:0.470903" /><path
     d="m 192.72107,38.236362 q 0,-3.442302 1.62462,-5.528403 a 5.5472389,5.5472389 0 0 1 8.41504,-0.296669 v -7.77932 h 2.55229 v 21.190641 h -2.35451 l -0.12244,-1.601071 a 5.1799344,5.1799344 0 0 1 -4.26167,1.883613 5.1045899,5.1045899 0 0 1 -4.23813,-2.123773 q -1.63874,-2.123773 -1.63403,-5.547239 z m 2.5523,0.287251 q 0,2.542877 1.0454,3.974422 a 3.3999206,3.3999206 0 0 0 2.90077,1.412709 3.7248438,3.7248438 0 0 0 3.54119,-2.180281 v -6.832804 a 3.767225,3.767225 0 0 0 -3.51765,-2.109647 3.4093387,3.4093387 0 0 0 -2.92431,1.445673 q -1.0454,1.450382 -1.0454,4.289928 z"
     id="path450"
     style="stroke-width:0.470903" /><path
     d="m 220.08996,25.733884 6.5691,16.392138 6.56439,-16.392138 h 3.43759 v 20.088727 h -2.65118 V 38.00091 l 0.24958,-8.443293 -6.59265,16.264994 h -2.02959 l -6.59264,-16.222613 0.2637,8.400912 v 7.821701 h -2.64647 V 25.733884 Z"
     id="path452"
     style="stroke-width:0.470903" /><path
     d="m 240.95097,26.934687 a 1.5257261,1.5257261 0 0 1 0.37672,-1.045405 1.6999603,1.6999603 0 0 1 2.25563,0 1.4880539,1.4880539 0 0 1 0.38614,1.045405 1.5775255,1.5775255 0 0 1 -2.64177,1.035986 1.4927629,1.4927629 0 0 1 -0.37672,-1.035986 z m 2.75949,18.887924 h -2.55229 V 30.894982 h 2.55229 z"
     id="path454"
     style="stroke-width:0.470903" /><path
     d="m 250.20893,30.894982 0.08,1.883612 a 5.4342221,5.4342221 0 0 1 4.46887,-2.152027 q 4.73258,0 4.77496,5.335333 v 9.86542 h -2.5523 v -9.888966 q 0,-1.610488 -0.73931,-2.382769 c -0.47091,-0.517994 -1.23377,-0.772282 -2.25563,-0.772282 a 3.6824625,3.6824625 0 0 0 -2.18028,0.659265 4.5347971,4.5347971 0 0 0 -1.4598,1.737632 v 10.637702 h -2.5523 V 30.890273 Z"
     id="path456"
     style="stroke-width:0.470903" /><path
     d="m 263.39421,26.934687 a 1.50689,1.50689 0 0 1 0.38144,-1.045405 1.4127094,1.4127094 0 0 1 1.12545,-0.428522 1.4409636,1.4409636 0 0 1 1.13017,0.428522 1.4880539,1.4880539 0 0 1 0.38614,1.045405 1.5775255,1.5775255 0 0 1 -2.64176,1.035986 1.4739268,1.4739268 0 0 1 -0.38144,-1.035986 z m 2.7595,18.887924 h -2.5523 V 30.894982 h 2.5523 z"
     id="path458"
     style="stroke-width:0.470903" /><path
     d="m 272.62392,30.894982 0.0706,1.657579 a 5.5001486,5.5001486 0 0 1 4.42649,-1.930703 q 3.13622,0 4.26638,2.396897 a 5.6508376,5.6508376 0 0 1 1.93541,-1.737633 5.716764,5.716764 0 0 1 2.82542,-0.659264 q 4.91623,0 4.99629,5.179935 v 10.001982 h -2.5523 v -9.832457 a 3.4375928,3.4375928 0 0 0 -0.7299,-2.392188 q -0.73461,-0.791118 -2.45811,-0.791118 a 3.2963219,3.2963219 0 0 0 -3.44701,3.131506 v 9.888966 h -2.56643 v -9.766531 q 0,-3.253941 -3.18801,-3.253941 c -1.67171,0 -2.82542,0.711064 -3.43288,2.137901 v 10.896698 h -2.5523 V 30.894982 Z"
     id="path460"
     style="stroke-width:0.470903" /><path
     d="m 304.21681,44.348684 q -1.48806,1.75176 -4.36998,1.75176 c -1.59166,0 -2.82542,-0.470903 -3.63538,-1.389164 -0.80995,-0.918261 -1.2526,-2.293299 -1.26202,-4.101567 v -9.714731 h 2.5523 v 9.644096 q 0,3.390503 2.75949,3.395212 2.92431,0 3.88966,-2.180282 V 30.894982 h 2.5523 v 14.927629 h -2.42987 z"
     id="path462"
     style="stroke-width:0.470903" /><path
     d="m 312.98031,30.894982 0.0659,1.657579 a 5.5095666,5.5095666 0 0 1 4.4312,-1.930703 q 3.1268,0 4.23813,2.396897 a 5.5519479,5.5519479 0 0 1 4.76083,-2.396897 q 4.90681,0 4.99157,5.179935 v 10.001982 h -2.55229 v -9.832457 a 3.4140477,3.4140477 0 0 0 -0.7299,-2.392188 q -0.7299,-0.791118 -2.45341,-0.791118 a 3.3716664,3.3716664 0 0 0 -2.35452,0.847626 3.4423019,3.4423019 0 0 0 -1.09249,2.28388 v 9.888966 h -2.56642 v -9.766531 q 0,-3.253941 -3.18331,-3.253941 -2.51462,0 -3.43759,2.137901 v 10.896698 h -2.5523 V 30.894982 Z"
     id="path464"
     style="stroke-width:0.470903" /><path
     d="m 356.06324,27.900038 h -6.45608 V 45.822611 H 346.9701 V 27.900038 h -6.44195 v -2.166154 h 15.5398 z"
     id="path466"
     style="stroke-width:0.470903" /><path
     d="m 361.19609,32.70325 a 5.4248041,5.4248041 0 0 1 4.41236,-2.081392 q 4.73257,0 4.77496,5.335333 v 9.86542 h -2.5523 v -9.888966 q 0,-1.610488 -0.73932,-2.382769 c -0.4709,-0.517994 -1.23376,-0.772282 -2.25562,-0.772282 a 3.6589173,3.6589173 0 0 0 -2.17558,0.659265 4.5018339,4.5018339 0 0 0 -1.4645,1.737632 v 10.637702 h -2.5523 V 24.622552 h 2.5523 z"
     id="path468"
     style="stroke-width:0.470903" /><path
     d="m 374.22127,26.934687 a 1.502181,1.502181 0 0 1 0.37672,-1.045405 1.4127094,1.4127094 0 0 1 1.12546,-0.428522 1.4409636,1.4409636 0 0 1 1.13016,0.428522 1.4880539,1.4880539 0 0 1 0.38614,1.045405 1.511599,1.511599 0 1 1 -3.01848,0 z m 2.75949,18.887924 h -2.5523 V 30.894982 h 2.5523 z"
     id="path470"
     style="stroke-width:0.470903" /><path
     d="m 387.05338,44.014343 a 3.6683354,3.6683354 0 0 0 2.38748,-0.82408 2.9054723,2.9054723 0 0 0 1.13016,-2.071974 h 2.41574 a 4.6101416,4.6101416 0 0 1 -0.8853,2.443987 5.7826904,5.7826904 0 0 1 -2.17087,1.84594 6.2488845,6.2488845 0 0 1 -2.87721,0.692228 6.1594129,6.1594129 0 0 1 -4.85031,-2.034302 q -1.79414,-2.03901 -1.79885,-5.570784 v -0.423812 a 9.027213,9.027213 0 0 1 0.80054,-3.880242 6.0887775,6.0887775 0 0 1 2.29801,-2.632349 6.5125903,6.5125903 0 0 1 3.53648,-0.941806 5.9945968,5.9945968 0 0 1 4.17691,1.502181 5.3824228,5.3824228 0 0 1 1.7706,3.903787 h -2.41574 a 3.4846832,3.4846832 0 0 0 -1.0972,-2.378061 3.4046296,3.4046296 0 0 0 -2.43457,-0.941806 3.5788638,3.5788638 0 0 0 -3.01378,1.412709 q -1.06424,1.41271 -1.06895,4.049767 v 0.470903 q 0,2.58055 1.06424,3.969714 a 3.5741548,3.5741548 0 0 0 3.03262,1.408 z"
     id="path472"
     style="stroke-width:0.470903" /><path
     d="m 400.01734,38.909753 -1.60107,1.671706 v 5.241152 h -2.5523 V 24.63197 h 2.5523 v 12.817983 l 1.36562,-1.643451 4.65252,-4.91152 h 3.10325 l -5.81094,6.234757 6.48433,8.692872 h -2.99023 z"
     id="path474"
     style="stroke-width:0.470903" /><path
     d="m 412.58574,30.894982 0.0848,1.883612 a 5.4295131,5.4295131 0 0 1 4.46887,-2.152027 q 4.70903,0 4.77495,5.335333 v 9.86542 h -2.55229 v -9.888966 a 3.4423019,3.4423019 0 0 0 -0.73932,-2.382769 2.9478536,2.9478536 0 0 0 -2.25562,-0.772282 3.6730444,3.6730444 0 0 0 -2.18029,0.659265 4.5442152,4.5442152 0 0 0 -1.4645,1.737632 v 10.637702 h -2.5523 V 30.890273 Z"
     id="path476"
     style="stroke-width:0.470903" /><path
     d="m 431.95399,46.100444 a 6.5031722,6.5031722 0 0 1 -4.93507,-1.996629 q -1.88361,-1.991921 -1.88361,-5.330624 v -0.470903 a 8.9471595,8.9471595 0 0 1 0.84763,-3.965004 6.6538612,6.6538612 0 0 1 2.35451,-2.731238 5.9569246,5.9569246 0 0 1 3.29633,-0.984188 q 2.91018,0 4.52537,1.916576 1.6152,1.916576 1.6152,5.49073 v 1.059532 h -10.115 a 5.3164963,5.3164963 0 0 0 1.29028,3.569446 4.059185,4.059185 0 0 0 3.14092,1.356201 4.4500346,4.4500346 0 0 0 2.28859,-0.550957 5.8203627,5.8203627 0 0 0 1.64345,-1.459799 l 1.55869,1.210221 q -1.87419,2.886636 -5.62729,2.886636 z m -0.31551,-13.383067 a 3.3952116,3.3952116 0 0 0 -2.59467,1.125459 5.4671853,5.4671853 0 0 0 -1.29499,3.150341 h 7.47795 v -0.19307 a 4.8644293,4.8644293 0 0 0 -1.05012,-3.01378 3.2068503,3.2068503 0 0 0 -2.53817,-1.06895 z"
     id="path478"
     style="stroke-width:0.470903" /><path
     d="m 449.41979,41.862316 a 1.8836125,1.8836125 0 0 0 -0.77699,-1.60578 7.5721223,7.5721223 0 0 0 -2.72653,-0.988896 12.714385,12.714385 0 0 1 -3.07971,-0.988897 4.3793991,4.3793991 0 0 1 -1.68112,-1.379746 3.2963219,3.2963219 0 0 1 -0.54625,-1.883613 3.8755328,3.8755328 0 0 1 1.55398,-3.103251 6.0511052,6.0511052 0 0 1 3.965,-1.26673 6.2394665,6.2394665 0 0 1 4.12041,1.309111 4.1674927,4.1674927 0 0 1 1.57752,3.35283 h -2.56642 a 2.2980073,2.2980073 0 0 0 -0.89001,-1.808268 3.3481213,3.3481213 0 0 0 -2.2415,-0.758154 3.4988103,3.4988103 0 0 0 -2.18028,0.607465 1.9118667,1.9118667 0 0 0 -0.78641,1.586944 1.5539803,1.5539803 0 0 0 0.7299,1.412709 9.0366311,9.0366311 0 0 0 2.64177,0.894716 13.844552,13.844552 0 0 1 3.09854,1.02186 4.5300881,4.5300881 0 0 1 1.76118,1.412709 3.5082283,3.5082283 0 0 1 0.56979,2.034302 3.8143154,3.8143154 0 0 1 -1.60107,3.20685 6.6962425,6.6962425 0 0 1 -4.14865,1.210221 7.5014869,7.5014869 0 0 1 -3.17389,-0.635719 5.1799344,5.1799344 0 0 1 -2.16145,-1.775305 4.2710914,4.2710914 0 0 1 -0.77699,-2.458114 h 2.5523 a 2.6464756,2.6464756 0 0 0 1.02657,2.034301 4.0026766,4.0026766 0 0 0 2.53346,0.748736 4.1062753,4.1062753 0 0 0 2.32155,-0.58392 1.803559,1.803559 0 0 0 0.8853,-1.596361 z"
     id="path480"
     style="stroke-width:0.470903" /><path
     d="m 463.98953,41.862316 a 1.8836125,1.8836125 0 0 0 -0.77699,-1.60578 7.5674133,7.5674133 0 0 0 -2.69828,-0.988896 12.756766,12.756766 0 0 1 -3.07499,-0.988897 4.3793991,4.3793991 0 0 1 -1.68113,-1.379746 3.2963219,3.2963219 0 0 1 -0.54624,-1.883613 3.8755328,3.8755328 0 0 1 1.55398,-3.103251 6.0416872,6.0416872 0 0 1 3.965,-1.26673 6.2159213,6.2159213 0 0 1 4.11569,1.309111 4.1580746,4.1580746 0 0 1 1.58224,3.35283 h -2.56642 a 2.2980073,2.2980073 0 0 0 -0.89001,-1.808268 3.3481213,3.3481213 0 0 0 -2.2415,-0.758154 3.4893922,3.4893922 0 0 0 -2.18028,0.607465 1.9118667,1.9118667 0 0 0 -0.78641,1.586944 1.5539803,1.5539803 0 0 0 0.7299,1.412709 9.0366311,9.0366311 0 0 0 2.64177,0.894716 13.844552,13.844552 0 0 1 3.09854,1.02186 4.511252,4.511252 0 0 1 1.75647,1.412709 3.4752651,3.4752651 0 0 1 0.5745,2.034302 3.8143154,3.8143154 0 0 1 -1.60107,3.20685 6.7009515,6.7009515 0 0 1 -4.15337,1.210221 7.4826507,7.4826507 0 0 1 -3.16917,-0.635719 5.118717,5.118717 0 0 1 -2.16145,-1.775305 4.2710914,4.2710914 0 0 1 -0.77699,-2.458114 h 2.51462 a 2.6323485,2.6323485 0 0 0 1.02657,2.034301 3.9979676,3.9979676 0 0 0 2.52875,0.748736 4.1204024,4.1204024 0 0 0 2.32626,-0.58392 1.803559,1.803559 0 0 0 0.89001,-1.596361 z"
     id="path482"
     style="stroke-width:0.470903" /><path
     d="m 476.05407,46.100444 a 6.5078813,6.5078813 0 0 1 -4.93978,-1.996629 q -1.88361,-1.991921 -1.88361,-5.330624 v -0.470903 a 8.9000692,8.9000692 0 0 1 0.85234,-3.965004 6.620898,6.620898 0 0 1 2.35451,-2.731238 5.9286704,5.9286704 0 0 1 3.29632,-0.984188 q 2.91018,0 4.52538,1.916576 1.6152,1.916576 1.6152,5.49073 v 1.059532 h -10.10558 a 5.3400415,5.3400415 0 0 0 1.29027,3.569446 4.059185,4.059185 0 0 0 3.14093,1.356201 4.4500346,4.4500346 0 0 0 2.28859,-0.550957 5.8203627,5.8203627 0 0 0 1.64345,-1.459799 l 1.55869,1.210221 q -1.86949,2.886636 -5.63671,2.886636 z m -0.32022,-13.383067 a 3.3952116,3.3952116 0 0 0 -2.59467,1.125459 5.4671853,5.4671853 0 0 0 -1.29499,3.150341 h 7.5062 v -0.19307 a 4.8644293,4.8644293 0 0 0 -1.05011,-3.01378 3.2068503,3.2068503 0 0 0 -2.55701,-1.06895 z"
     id="path484"
     style="stroke-width:0.470903" /><path
     d="m 493.52928,41.862316 a 1.8836125,1.8836125 0 0 0 -0.7817,-1.60578 7.5344501,7.5344501 0 0 0 -2.71711,-0.988896 12.68613,12.68613 0 0 1 -3.07499,-0.988897 4.360563,4.360563 0 0 1 -1.68584,-1.379746 3.2963219,3.2963219 0 0 1 -0.54625,-1.883613 3.8755328,3.8755328 0 0 1 1.55398,-3.103251 6.0511052,6.0511052 0 0 1 3.96501,-1.26673 6.2300484,6.2300484 0 0 1 4.1204,1.309111 4.1674927,4.1674927 0 0 1 1.57753,3.35283 h -2.56643 a 2.2980073,2.2980073 0 0 0 -0.89,-1.808268 3.3387032,3.3387032 0 0 0 -2.2415,-0.758154 3.4988103,3.4988103 0 0 0 -2.18028,0.607465 1.9118667,1.9118667 0 0 0 -0.78641,1.586944 1.5492713,1.5492713 0 0 0 0.73461,1.412709 8.9471595,8.9471595 0 0 0 2.64176,0.894716 13.877515,13.877515 0 0 1 3.09384,1.02186 4.5300881,4.5300881 0 0 1 1.76118,1.412709 3.5082283,3.5082283 0 0 1 0.5745,2.034302 3.8284424,3.8284424 0 0 1 -1.60107,3.20685 6.7197877,6.7197877 0 0 1 -4.15337,1.210221 7.5014869,7.5014869 0 0 1 -3.17389,-0.635719 5.1328441,5.1328441 0 0 1 -2.15673,-1.775305 4.2381282,4.2381282 0 0 1 -0.7817,-2.458114 h 2.55229 a 2.6653117,2.6653117 0 0 0 1.02657,2.034301 4.0026766,4.0026766 0 0 0 2.53346,0.748736 4.1345295,4.1345295 0 0 0 2.32626,-0.58392 1.803559,1.803559 0 0 0 0.87588,-1.596361 z"
     id="path486"
     style="stroke-width:0.470903" /><path
     d="m 414.8886,154.63891 3.94146,9.83245 3.93675,-9.83245 h 2.06256 v 12.05041 h -1.58695 v -4.70903 l 0.14598,-5.06692 -3.95558,9.75711 h -1.21493 l -3.95088,-9.73357 0.1554,5.04338 v 4.70903 h -1.58695 v -12.05041 z"
     id="path488"
     style="stroke-width:0.470903" /><path
     d="m 427.40521,155.35939 a 0.94180626,0.94180626 0 0 1 0.22603,-0.63101 1.0265688,1.0265688 0 0 1 1.35149,0 0.91355207,0.91355207 0 0 1 0.23545,0.63101 0.94180626,0.94180626 0 0 1 -1.58694,0.62159 0.88529788,0.88529788 0 0 1 -0.22603,-0.62159 z m 1.65287,11.32993 h -1.53044 v -8.94716 h 1.53044 z"
     id="path490"
     style="stroke-width:0.470903" /><path
     d="m 432.95715,157.73274 0.0754,1.14429 a 3.2680677,3.2680677 0 0 1 2.67944,-1.29027 q 2.82542,0 2.86309,3.20214 v 5.91925 h -1.53044 v -5.9475 a 2.0437196,2.0437196 0 0 0 -0.44265,-1.41271 1.7611777,1.7611777 0 0 0 -1.35149,-0.47091 2.1896996,2.1896996 0 0 0 -1.30911,0.40027 2.6606027,2.6606027 0 0 0 -0.90884,1.01244 v 6.38074 h -1.53044 v -8.94716 z"
     id="path492"
     style="stroke-width:0.470903" /><path
     d="m 440.87304,155.35939 a 0.94180626,0.94180626 0 0 1 0.22603,-0.63101 1.0265688,1.0265688 0 0 1 1.35149,0 0.91355207,0.91355207 0 0 1 0.23545,0.63101 0.94180626,0.94180626 0 0 1 -1.58694,0.62159 0.88529788,0.88529788 0 0 1 -0.22603,-0.62159 z m 1.65287,11.32993 h -1.53044 v -8.94716 h 1.53044 z"
     id="path494"
     style="stroke-width:0.470903" /><path
     d="m 446.41557,157.73274 0.0424,0.99361 a 3.2963219,3.2963219 0 0 1 2.65589,-1.15843 q 1.88361,0 2.56171,1.44097 a 3.3481213,3.3481213 0 0 1 2.85368,-1.44097 q 2.94314,0 2.99494,3.12209 v 5.99931 h -1.53043 v -5.92867 a 2.0625557,2.0625557 0 0 0 -0.43794,-1.43626 1.9354119,1.9354119 0 0 0 -1.47393,-0.4709 2.0154654,2.0154654 0 0 0 -1.41271,0.50857 2.0625557,2.0625557 0 0 0 -0.65456,1.37033 v 5.9428 h -1.55869 v -5.85333 c 0,-1.3044 -0.64042,-1.95424 -1.91186,-1.95424 a 2.0437196,2.0437196 0 0 0 -2.06256,1.28556 v 6.53614 h -1.53043 v -8.94716 z"
     id="path496"
     style="stroke-width:0.470903" /><path
     d="m 465.36471,165.80402 a 3.2492316,3.2492316 0 0 1 -2.62293,1.05011 2.7736194,2.7736194 0 0 1 -2.18028,-0.82879 3.5976999,3.5976999 0 0 1 -0.75816,-2.46282 v -5.82978 h 1.53044 v 5.7874 q 0,2.0343 1.65758,2.0343 1.75176,0 2.35451,-1.3044 v -6.5173 h 1.53044 v 8.94716 h -1.45509 z"
     id="path498"
     style="stroke-width:0.470903" /><path
     d="m 470.61999,157.73274 0.0424,0.99361 a 3.2963219,3.2963219 0 0 1 2.65589,-1.15843 q 1.88361,0 2.55701,1.44097 a 3.3528303,3.3528303 0 0 1 2.85838,-1.44097 q 2.94785,0 2.99494,3.12209 v 5.99931 h -1.53043 v -5.92867 a 2.0625557,2.0625557 0 0 0 -0.43794,-1.43626 1.9448299,1.9448299 0 0 0 -1.47393,-0.4709 1.9777931,1.9777931 0 0 0 -2.06726,1.88361 v 5.9428 h -1.53986 v -5.85804 c 0,-1.3044 -0.64043,-1.95424 -1.91186,-1.95424 a 2.0437196,2.0437196 0 0 0 -2.06256,1.28556 v 6.53614 h -1.53044 v -8.94716 z"
     id="path500"
     style="stroke-width:0.470903" /><path
     d="m 418.45805,172.89111 h -3.87083 v 10.75072 h -1.58223 v -10.75072 h -3.86612 v -1.29969 h 9.31918 z"
     id="path502"
     style="stroke-width:0.470903" /><path
     d="m 421.53775,175.77304 a 3.2586497,3.2586497 0 0 1 2.65119,-1.2526 q 2.82542,0 2.86309,3.20214 v 5.91925 h -1.53044 v -5.92867 a 2.0625557,2.0625557 0 0 0 -0.44264,-1.41271 1.7800138,1.7800138 0 0 0 -1.35621,-0.4709 2.1755725,2.1755725 0 0 0 -1.3044,0.40026 2.712402,2.712402 0 0 0 -0.88059,1.0407 v 6.38074 h -1.53043 v -12.71439 h 1.53043 z"
     id="path504"
     style="stroke-width:0.470903" /><path
     d="m 429.35475,172.3119 a 0.94180626,0.94180626 0 0 1 0.22603,-0.63101 1.0265688,1.0265688 0 0 1 1.35149,0 0.91355207,0.91355207 0 0 1 0.23545,0.63101 0.94180626,0.94180626 0 0 1 -1.58694,0.62159 0.88529788,0.88529788 0 0 1 -0.22603,-0.62159 z m 1.65287,11.32993 h -1.53044 v -8.94716 h 1.53044 z"
     id="path506"
     style="stroke-width:0.470903" /><path
     d="m 437.0493,182.55875 a 2.2273718,2.2273718 0 0 0 1.41271,-0.4709 1.7847229,1.7847229 0 0 0 0.6781,-1.24318 h 1.44568 a 2.7783285,2.7783285 0 0 1 -0.52742,1.4645 3.5459006,3.5459006 0 0 1 -1.3044,1.11134 3.8096063,3.8096063 0 0 1 -1.72821,0.40968 3.6730444,3.6730444 0 0 1 -2.90547,-1.21964 4.8597203,4.8597203 0 0 1 -1.08308,-3.3387 v -0.259 a 5.4059679,5.4059679 0 0 1 0.4709,-2.32626 3.6400812,3.6400812 0 0 1 1.37975,-1.57752 3.8990779,3.8990779 0 0 1 2.12377,-0.56509 3.5788638,3.5788638 0 0 1 2.5005,0.90414 3.2021413,3.2021413 0 0 1 1.06424,2.35451 h -1.42213 a 2.1190641,2.1190641 0 0 0 -0.65926,-1.41271 2.0484286,2.0484286 0 0 0 -1.4598,-0.56037 2.1331912,2.1331912 0 0 0 -1.80827,0.84291 3.9414592,3.9414592 0 0 0 -0.64514,2.42986 v 0.28725 a 3.8378605,3.8378605 0 0 0 0.64043,2.38277 2.1426092,2.1426092 0 0 0 1.8271,0.78641 z"
     id="path508"
     style="stroke-width:0.470903" /><path
     d="m 444.83333,179.49788 -0.9418,0.99832 v 3.14563 h -1.53044 v -12.71438 h 1.50218 v 7.68984 l 0.81937,-0.98418 2.78775,-2.94786 h 1.88361 l -3.48468,3.74368 3.88966,5.2129 h -1.79885 z"
     id="path510"
     style="stroke-width:0.470903" /><path
     d="m 452.37249,174.68525 0.0518,1.12546 a 3.2680677,3.2680677 0 0 1 2.67944,-1.29027 q 2.82542,0 2.86309,3.20214 v 5.91925 h -1.53044 v -5.92867 a 2.0437196,2.0437196 0 0 0 -0.44264,-1.41271 1.7611777,1.7611777 0 0 0 -1.3515,-0.4709 2.1896996,2.1896996 0 0 0 -1.30911,0.40026 2.6606027,2.6606027 0 0 0 -0.87588,1.0407 v 6.38074 h -1.53043 v -8.94716 z"
     id="path512"
     style="stroke-width:0.470903" /><path
     d="m 463.99438,183.80665 a 3.8990779,3.8990779 0 0 1 -2.96198,-1.1961 4.4264894,4.4264894 0 0 1 -1.1443,-3.19743 v -0.28725 a 5.3777137,5.3777137 0 0 1 0.50858,-2.37806 3.9697134,3.9697134 0 0 1 1.41271,-1.63874 3.5600277,3.5600277 0 0 1 1.9825,-0.59334 3.3481213,3.3481213 0 0 1 2.7124,1.15371 c 0.64514,0.76286 0.97006,1.88361 0.97006,3.29632 v 0.63101 h -6.06994 a 3.1974323,3.1974323 0 0 0 0.77699,2.14261 2.4392782,2.4392782 0 0 0 1.88362,0.81466 2.6370575,2.6370575 0 0 0 1.37032,-0.32963 3.4375928,3.4375928 0 0 0 0.9889,-0.88059 l 0.94181,0.7299 a 3.767225,3.767225 0 0 1 -3.37167,1.73293 z m -0.18836,-8.0289 a 2.0390106,2.0390106 0 0 0 -1.55869,0.6781 3.2633587,3.2633587 0 0 0 -0.77699,1.88361 h 4.48771 v -0.11302 a 2.9101813,2.9101813 0 0 0 -0.63101,-1.80826 1.9212848,1.9212848 0 0 0 -1.52102,-0.64043 z"
     id="path514"
     style="stroke-width:0.470903" /><path
     d="m 474.47197,181.26848 a 1.1301675,1.1301675 0 0 0 -0.4709,-0.94181 4.4217804,4.4217804 0 0 0 -1.62932,-0.59334 7.7322294,7.7322294 0 0 1 -1.84594,-0.59333 2.6417666,2.6417666 0 0 1 -1.01245,-0.82879 1.9919202,1.9919202 0 0 1 -0.32492,-1.1443 2.3262615,2.3262615 0 0 1 0.94181,-1.88361 3.6306631,3.6306631 0 0 1 2.35451,-0.76286 3.767225,3.767225 0 0 1 2.47224,0.7864 2.5004956,2.5004956 0 0 1 0.94181,2.01076 h -1.53985 a 1.3844552,1.3844552 0 0 0 -0.53212,-1.08308 2.0201744,2.0201744 0 0 0 -1.34679,-0.4709 2.0908099,2.0908099 0 0 0 -1.30911,0.36731 1.1537127,1.1537127 0 0 0 -0.4709,0.9418 0.94180626,0.94180626 0 0 0 0.43794,0.8335 5.4766034,5.4766034 0 0 0 1.58694,0.54154 8.0995338,8.0995338 0 0 1 1.88362,0.61217 2.7265291,2.7265291 0 0 1 1.05482,0.85705 2.1237731,2.1237731 0 0 1 0.34376,1.21964 2.2980073,2.2980073 0 0 1 -0.94181,1.92599 4.0497669,4.0497669 0 0 1 -2.49108,0.72048 4.5960145,4.5960145 0 0 1 -1.88361,-0.37672 3.1220878,3.1220878 0 0 1 -1.29498,-1.06424 2.5805492,2.5805492 0 0 1 -0.4709,-1.47864 h 1.53043 a 1.5916526,1.5916526 0 0 0 0.61688,1.21964 2.3968969,2.3968969 0 0 0 1.52102,0.4709 2.4675324,2.4675324 0 0 0 1.41271,-0.35317 1.0783682,1.0783682 0 0 0 0.46619,-0.93239 z"
     id="path516"
     style="stroke-width:0.470903" /><path
     d="m 483.21665,181.26848 a 1.1254585,1.1254585 0 0 0 -0.47091,-0.94181 4.4217804,4.4217804 0 0 0 -1.62932,-0.59334 7.7322294,7.7322294 0 0 1 -1.84594,-0.59333 2.5899672,2.5899672 0 0 1 -1.00774,-0.82879 1.958957,1.958957 0 0 1 -0.32963,-1.1443 2.3262615,2.3262615 0 0 1 0.94181,-1.88361 3.6306631,3.6306631 0 0 1 2.37806,-0.76286 3.767225,3.767225 0 0 1 2.47224,0.7864 2.5004956,2.5004956 0 0 1 0.94181,2.01076 h -1.53986 a 1.3703281,1.3703281 0 0 0 -0.53212,-1.08308 2.0201744,2.0201744 0 0 0 -1.34678,-0.4709 2.0672647,2.0672647 0 0 0 -1.3044,0.36731 1.1442946,1.1442946 0 0 0 -0.4709,0.9418 0.94180626,0.94180626 0 0 0 0.44264,0.8335 5.4342221,5.4342221 0 0 0 1.58224,0.54154 8.0053532,8.0053532 0 0 1 1.86007,0.61217 2.6935659,2.6935659 0 0 1 1.05482,0.85705 2.0908099,2.0908099 0 0 1 0.34376,1.21964 2.2980073,2.2980073 0 0 1 -0.94181,1.92599 4.0403489,4.0403489 0 0 1 -2.49107,0.72048 4.5724694,4.5724694 0 0 1 -1.88362,-0.37672 3.0938336,3.0938336 0 0 1 -1.29498,-1.06424 2.552295,2.552295 0 0 1 -0.4709,-1.47864 h 1.50689 a 1.5916526,1.5916526 0 0 0 0.61688,1.21964 2.3968969,2.3968969 0 0 0 1.52102,0.4709 2.4534053,2.4534053 0 0 0 1.41271,-0.35317 1.0736591,1.0736591 0 0 0 0.48503,-0.93239 z"
     id="path518"
     style="stroke-width:0.470903" /><line
     class="cls-2"
     x1="264.09116"
     y1="90.888039"
     x2="264.09116"
     y2="136.50443"
     id="line520"
     style="stroke-width:1.5;stroke-dasharray:none" /><polyline
     class="cls-2"
     points="1253.19 329.68 1261.04 317.56 1268.57 330.03"
     id="polyline522"
     transform="matrix(0.47090313,0,0,0.47090313,-329.66119,-60.563824)" /><polyline
     class="cls-2"
     points="1253.19 409.85 1261.04 421.97 1268.57 409.5"
     id="polyline524"
     transform="matrix(0.47090313,0,0,0.47090313,-329.66119,-60.563824)" /><path
     d="m 234.27618,148.60832 3.93675,9.83246 3.94146,-9.83246 h 2.06255 v 12.05512 h -1.59165 v -4.70903 l 0.15069,-5.06692 -3.95559,9.76183 h -1.21964 l -3.94616,-9.73357 0.15539,5.03866 v 4.70903 h -1.58694 v -12.05512 z"
     id="path526"
     style="stroke-width:0.470903" /><path
     d="m 252.31177,160.66344 a 3.2209774,3.2209774 0 0 1 -0.21662,-0.9418 3.3952116,3.3952116 0 0 1 -2.54758,1.11133 3.1738871,3.1738871 0 0 1 -2.17558,-0.74874 2.4251511,2.4251511 0 0 1 -0.84762,-1.88361 2.5428769,2.5428769 0 0 1 1.06424,-2.17557 5.0480816,5.0480816 0 0 1 2.99494,-0.77228 h 1.48806 v -0.71107 a 1.7140874,1.7140874 0 0 0 -0.47091,-1.27614 1.9165757,1.9165757 0 0 0 -1.41271,-0.47091 2.2038266,2.2038266 0 0 0 -1.37032,0.4144 1.205512,1.205512 0 0 0 -0.55567,0.99831 h -1.53985 a 2.1284821,2.1284821 0 0 1 0.4709,-1.29498 3.2963219,3.2963219 0 0 1 1.29028,-0.9889 4.3935262,4.3935262 0 0 1 1.79414,-0.36259 3.5506096,3.5506096 0 0 1 2.42515,0.77228 2.8254188,2.8254188 0 0 1 0.90884,2.13319 v 4.1204 a 5.0009912,5.0009912 0 0 0 0.31551,1.96367 v 0.11301 z m -2.54288,-1.16784 a 2.6700207,2.6700207 0 0 0 1.36562,-0.37201 2.2367899,2.2367899 0 0 0 0.94181,-0.97006 v -1.83652 h -1.20081 c -1.88361,0 -2.82542,0.55095 -2.82542,1.64816 a 1.4127094,1.4127094 0 0 0 0.47091,1.12546 1.8836125,1.8836125 0 0 0 1.26673,0.40026 z"
     id="path528"
     style="stroke-width:0.470903" /><path
     d="m 259.00801,154.97022 1.98721,-3.26806 h 1.78943 l -2.93372,4.42649 3.0232,4.53008 h -1.78473 l -2.07197,-3.35283 -2.06727,3.35283 h -1.78001 l 3.0232,-4.53008 -2.93373,-4.42649 h 1.7706 z"
     id="path530"
     style="stroke-width:0.470903" /><path
     d="m 264.41398,149.3241 a 0.91355207,0.91355207 0 0 1 0.22603,-0.62631 0.8570437,0.8570437 0 0 1 0.68752,-0.27783 0.88058885,0.88058885 0 0 1 0.68281,0.259 0.94180626,0.94180626 0 0 1 0.23074,0.6263 0.82878951,0.82878951 0 0 1 -0.91355,0.87117 0.87117079,0.87117079 0 0 1 -0.67339,-0.24958 0.88529788,0.88529788 0 0 1 -0.24016,-0.60275 z m 1.65287,11.33463 h -1.53044 v -8.94245 h 1.53044 z"
     id="path532"
     style="stroke-width:0.470903" /><path
     d="m 269.96122,151.71628 0.0377,0.99361 a 3.2963219,3.2963219 0 0 1 2.6606,-1.15842 q 1.88361,0 2.55701,1.44096 a 3.3245761,3.3245761 0 0 1 1.16313,-1.0454 3.4375928,3.4375928 0 0 1 1.69052,-0.39556 q 2.94785,0 2.99965,3.11738 v 5.99459 h -1.53515 v -5.91454 a 2.0578467,2.0578467 0 0 0 -0.43794,-1.43625 1.9165757,1.9165757 0 0 0 -1.4739,-0.47091 2.0248835,2.0248835 0 0 0 -1.41271,0.50858 2.0625557,2.0625557 0 0 0 -0.65455,1.37033 v 5.94279 h -1.53986 v -5.87216 q 0,-1.95425 -1.91186,-1.95425 a 2.0578467,2.0578467 0 0 0 -2.06256,1.28086 v 6.54555 h -1.53043 v -8.94716 z"
     id="path534"
     style="stroke-width:0.470903" /><path
     d="m 288.90563,159.77344 a 3.2445226,3.2445226 0 0 1 -2.62293,1.05011 2.7783285,2.7783285 0 0 1 -2.18029,-0.8335 3.5929909,3.5929909 0 0 1 -0.75815,-2.46282 v -5.81095 h 1.53044 v 5.7874 q 0,2.0343 1.65757,2.0343 1.75176,0 2.35452,-1.30911 v -6.51259 h 1.53514 v 8.94716 h -1.45979 z"
     id="path536"
     style="stroke-width:0.470903" /><path
     d="m 294.16091,151.71628 0.0424,0.99361 a 3.2963219,3.2963219 0 0 1 2.65589,-1.15842 c 1.2526,0 2.10965,0.4709 2.56171,1.44096 a 3.3245761,3.3245761 0 0 1 1.16313,-1.0454 3.4375928,3.4375928 0 0 1 1.69055,-0.39556 q 2.94785,0 2.99494,3.11738 v 5.99459 h -1.53043 v -5.91454 a 2.0578467,2.0578467 0 0 0 -0.43794,-1.43625 1.9165757,1.9165757 0 0 0 -1.47393,-0.47091 2.0154654,2.0154654 0 0 0 -1.41271,0.50858 2.0625557,2.0625557 0 0 0 -0.65456,1.37033 v 5.94279 h -1.53985 v -5.87216 c 0,-1.3044 -0.64043,-1.95425 -1.91187,-1.95425 a 2.0531376,2.0531376 0 0 0 -2.06255,1.28086 v 6.54555 h -1.53044 v -8.94716 z"
     id="path538"
     style="stroke-width:0.470903" /><path
     d="m 239.92231,166.85582 h -3.87083 v 10.76014 h -1.58223 v -10.76014 h -3.86612 v -1.29498 h 9.31918 z"
     id="path540"
     style="stroke-width:0.470903" /><path
     d="m 243.00201,169.73775 a 3.2539406,3.2539406 0 0 1 2.65119,-1.2479 q 2.82542,0 2.86309,3.20214 v 5.92397 h -1.53044 v -5.93338 a 2.0719738,2.0719738 0 0 0 -0.44265,-1.41271 1.7941409,1.7941409 0 0 0 -1.3562,-0.47091 2.2038266,2.2038266 0 0 0 -1.3044,0.39556 2.6888569,2.6888569 0 0 0 -0.88059,1.04541 v 6.37603 h -1.53043 v -12.71439 h 1.53043 z"
     id="path542"
     style="stroke-width:0.470903" /><path
     d="m 250.81901,166.27661 a 0.91355207,0.91355207 0 0 1 0.22603,-0.6263 1.0124417,1.0124417 0 0 1 1.35149,0 0.89942498,0.89942498 0 0 1 0.23545,0.6263 0.94180626,0.94180626 0 0 1 -1.58694,0.62159 0.88529788,0.88529788 0 0 1 -0.22603,-0.62159 z m 1.65287,11.33935 h -1.53044 v -8.94716 h 1.53044 z"
     id="path544"
     style="stroke-width:0.470903" /><path
     d="m 258.51356,176.52817 a 2.2320808,2.2320808 0 0 0 1.41271,-0.49916 1.7658867,1.7658867 0 0 0 0.69223,-1.23847 h 1.44567 a 2.8254188,2.8254188 0 0 1 -0.52741,1.46921 3.4893922,3.4893922 0 0 1 -1.3044,1.10663 3.767225,3.767225 0 0 1 -1.72822,0.41439 3.6730444,3.6730444 0 0 1 -2.90547,-1.21964 4.8738474,4.8738474 0 0 1 -1.08308,-3.34341 v -0.25429 a 5.3918408,5.3918408 0 0 1 0.47091,-2.32626 3.6824625,3.6824625 0 0 1 1.37974,-1.58223 3.9367502,3.9367502 0 0 1 2.12378,-0.56038 3.5976999,3.5976999 0 0 1 2.50049,0.89943 3.2115593,3.2115593 0 0 1 1.06424,2.35451 h -1.43625 a 2.1190641,2.1190641 0 0 0 -0.65927,-1.41271 2.0484286,2.0484286 0 0 0 -1.45979,-0.56037 2.1331912,2.1331912 0 0 0 -1.80827,0.83821 3.9414592,3.9414592 0 0 0 -0.64514,2.42986 v 0.29196 a 3.8378605,3.8378605 0 0 0 0.64043,2.38277 2.1567363,2.1567363 0 0 0 1.8271,0.80995 z"
     id="path546"
     style="stroke-width:0.470903" /><path
     d="m 266.29759,173.46259 -0.94181,1.00302 v 3.15035 h -1.53043 v -12.71439 h 1.50218 v 7.68985 l 0.81937,-0.98419 2.78775,-2.94785 h 1.88361 l -3.48468,3.73897 3.88024,5.21761 h -1.79885 z"
     id="path548"
     style="stroke-width:0.470903" /><path
     d="m 273.83675,168.6688 0.0518,1.12545 a 3.2539406,3.2539406 0 0 1 2.67944,-1.29027 q 2.82539,0 2.86307,3.20214 v 5.90984 h -1.53044 v -5.93338 a 2.0484286,2.0484286 0 0 0 -0.44262,-1.41271 1.7753048,1.7753048 0 0 0 -1.3515,-0.47091 2.2179537,2.2179537 0 0 0 -1.30911,0.39556 2.6417666,2.6417666 0 0 0 -0.87588,1.04541 v 6.37603 h -1.53043 v -8.94716 z"
     id="path550"
     style="stroke-width:0.470903" /><path
     d="m 285.45862,177.77606 a 3.917914,3.917914 0 0 1 -2.96198,-1.19609 4.4311985,4.4311985 0 0 1 -1.15843,-3.20214 v -0.28254 a 5.3965499,5.3965499 0 0 1 0.50858,-2.38277 3.9697134,3.9697134 0 0 1 1.41271,-1.63875 3.5929909,3.5929909 0 0 1 1.9825,-0.58863 3.3481213,3.3481213 0 0 1 2.7124,1.14901 q 0.97006,1.149 0.97006,3.29632 v 0.63572 h -6.06994 a 3.1785961,3.1785961 0 0 0 0.77699,2.1379 2.4251511,2.4251511 0 0 0 1.88361,0.81937 2.6370575,2.6370575 0 0 0 1.37033,-0.33434 3.4893922,3.4893922 0 0 0 0.9889,-0.87588 l 0.94181,0.7299 a 3.767225,3.767225 0 0 1 -3.35754,1.73292 z m -0.18837,-8.00535 a 2.0484286,2.0484286 0 0 0 -1.55868,0.67339 3.2963219,3.2963219 0 0 0 -0.77699,1.88361 h 4.4877 v -0.11772 a 2.9290175,2.9290175 0 0 0 -0.63101,-1.80827 1.9165757,1.9165757 0 0 0 -1.52102,-0.65456 z"
     id="path552"
     style="stroke-width:0.470903" /><path
     d="m 295.93621,175.23319 a 1.1160404,1.1160404 0 0 0 -0.4709,-0.94181 4.4217804,4.4217804 0 0 0 -1.62933,-0.59334 7.5061959,7.5061959 0 0 1 -1.84594,-0.59805 2.6323485,2.6323485 0 0 1 -1.01244,-0.82408 1.9919202,1.9919202 0 0 1 -0.32492,-1.14429 2.3262615,2.3262615 0 0 1 0.9418,-1.88361 3.6542083,3.6542083 0 0 1 2.35452,-0.75816 3.7248438,3.7248438 0 0 1 2.47224,0.78641 2.4910776,2.4910776 0 0 1 0.94181,2.01076 h -1.53986 a 1.3844552,1.3844552 0 0 0 -0.53212,-1.08308 1.9966293,1.9966293 0 0 0 -1.34678,-0.4709 2.1190641,2.1190641 0 0 0 -1.30911,0.36259 1.1584217,1.1584217 0 0 0 -0.4709,0.94181 0.94180626,0.94180626 0 0 0 0.43794,0.83821 5.3635867,5.3635867 0 0 0 1.58694,0.53683 8.5845641,8.5845641 0 0 1 1.88361,0.61217 2.7689104,2.7689104 0 0 1 1.05483,0.85704 2.1426092,2.1426092 0 0 1 0.34375,1.22435 2.2885892,2.2885892 0 0 1 -0.9418,1.92129 4.0215127,4.0215127 0 0 1 -2.49108,0.72519 4.52067,4.52067 0 0 1 -1.88361,-0.38143 3.0891245,3.0891245 0 0 1 -1.29499,-1.06424 2.557004,2.557004 0 0 1 -0.4709,-1.47393 h 1.53044 a 1.5916526,1.5916526 0 0 0 0.61688,1.21964 2.3968969,2.3968969 0 0 0 1.52102,0.4709 2.4675324,2.4675324 0 0 0 1.41271,-0.35318 1.0830772,1.0830772 0 0 0 0.46619,-0.93709 z"
     id="path554"
     style="stroke-width:0.470903" /><path
     d="m 304.68088,175.23319 a 1.1113314,1.1113314 0 0 0 -0.4709,-0.94181 4.4217804,4.4217804 0 0 0 -1.62933,-0.59334 7.5061959,7.5061959 0 0 1 -1.84594,-0.59805 2.5805492,2.5805492 0 0 1 -1.00773,-0.82408 1.958957,1.958957 0 0 1 -0.32963,-1.14429 2.3262615,2.3262615 0 0 1 0.9418,-1.88361 3.6542083,3.6542083 0 0 1 2.37807,-0.75816 3.7248438,3.7248438 0 0 1 2.47224,0.78641 2.4910776,2.4910776 0 0 1 0.9418,2.01076 h -1.53985 a 1.3703281,1.3703281 0 0 0 -0.53212,-1.08308 1.9966293,1.9966293 0 0 0 -1.34678,-0.4709 2.0955189,2.0955189 0 0 0 -1.30441,0.36259 1.1490036,1.1490036 0 0 0 -0.4709,0.94181 0.94180626,0.94180626 0 0 0 0.44265,0.83821 5.3212054,5.3212054 0 0 0 1.58224,0.53683 8.4762563,8.4762563 0 0 1 1.86006,0.61217 2.7359472,2.7359472 0 0 1 1.05483,0.85704 2.104937,2.104937 0 0 1 0.34375,1.22435 2.2885892,2.2885892 0 0 1 -0.9418,1.92129 4.0120947,4.0120947 0 0 1 -2.49108,0.72519 4.4971249,4.4971249 0 0 1 -1.88361,-0.38143 3.0608703,3.0608703 0 0 1 -1.29499,-1.06424 2.5287498,2.5287498 0 0 1 -0.4709,-1.47393 h 1.50689 a 1.5916526,1.5916526 0 0 0 0.61688,1.21964 2.3968969,2.3968969 0 0 0 1.52102,0.4709 2.4534053,2.4534053 0 0 0 1.41271,-0.35318 1.0783682,1.0783682 0 0 0 0.48503,-0.93709 z"
     id="path556"
     style="stroke-width:0.470903" /><path
     d="m 50.710354,92.951523 a 4.2710914,4.2710914 0 0 1 -1.436255,3.06558 5.0527906,5.0527906 0 0 1 -3.414048,1.11604 4.5442152,4.5442152 0 0 1 -3.649499,-1.55869 q -1.327947,-1.5634 -1.327947,-4.28522 v -0.73461 a 7.2989985,7.2989985 0 0 1 0.612174,-3.06558 4.6054326,4.6054326 0 0 1 1.75176,-2.02959 5.4530582,5.4530582 0 0 1 6.004015,0.40969 4.5677604,4.5677604 0 0 1 1.473927,3.13621 h -2.48166 a 2.5146227,2.5146227 0 0 0 -0.649846,-1.69054 2.3968969,2.3968969 0 0 0 -1.69996,-0.52741 2.109646,2.109646 0 0 0 -1.883613,0.89 q -0.616883,0.89001 -0.63101,2.7595 v 0.90884 q 0,1.95425 0.588629,2.85838 a 2.0672647,2.0672647 0 0 0 1.883612,0.89943 2.4486963,2.4486963 0 0 0 1.714088,-0.52271 2.3545157,2.3545157 0 0 0 0.649846,-1.62932 z"
     id="path558"
     style="stroke-width:0.470903" /><path
     d="m 51.812267,92.405273 a 5.2929512,5.2929512 0 0 1 0.513284,-2.35451 3.767225,3.767225 0 0 1 1.473927,-1.6152 4.3134727,4.3134727 0 0 1 2.241499,-0.5698 4.0733121,4.0733121 0 0 1 2.957272,1.10663 4.4500346,4.4500346 0 0 1 1.280856,3.01378 v 0.61217 a 4.7090313,4.7090313 0 0 1 -1.149003,3.29632 4.4594526,4.4594526 0 0 1 -6.17825,0 4.7372855,4.7372855 0 0 1 -1.153712,-3.37637 z m 2.392188,0.17423 a 3.3481213,3.3481213 0 0 0 0.470903,1.94954 1.5775255,1.5775255 0 0 0 1.370328,0.6781 1.6010706,1.6010706 0 0 0 1.36091,-0.66868 3.6777534,3.6777534 0 0 0 0.470903,-2.13319 3.2963219,3.2963219 0 0 0 -0.470903,-1.94012 1.5869435,1.5869435 0 0 0 -1.375037,-0.69223 1.5633984,1.5633984 0 0 0 -1.356201,0.68752 3.7295528,3.7295528 0 0 0 -0.470903,2.11906 z"
     id="path560"
     style="stroke-width:0.470903" /><path
     d="m 63.970988,88.011743 0.0753,1.03599 a 3.1220878,3.1220878 0 0 1 2.57113,-1.2008 2.5993853,2.5993853 0 0 1 2.11906,0.8335 3.917914,3.917914 0 0 1 0.71578,2.50049 v 5.7874 h -2.3969 v -5.72618 a 1.5539803,1.5539803 0 0 0 -0.32963,-1.10662 1.4786358,1.4786358 0 0 0 -1.10192,-0.34376 1.6387429,1.6387429 0 0 0 -1.5116,0.86175 v 6.31481 h -2.39218 v -8.94716 z"
     id="path562"
     style="stroke-width:0.470903" /><path
     d="m 74.613398,94.025183 1.667,-6.03227 h 2.50049 l -3.0232,8.94716 h -2.28388 l -3.0232,-8.94716 h 2.5005 z"
     id="path564"
     style="stroke-width:0.470903" /><path
     d="m 83.843098,97.133143 a 4.3935262,4.3935262 0 0 1 -3.20685,-1.20551 4.3134727,4.3134727 0 0 1 -1.23848,-3.22098 v -0.23074 a 5.4059679,5.4059679 0 0 1 0.52271,-2.41574 3.8755328,3.8755328 0 0 1 1.47863,-1.63874 4.1627837,4.1627837 0 0 1 2.18028,-0.5745 3.7107167,3.7107167 0 0 1 2.89135,1.15842 q 1.05953,1.15842 1.05953,3.29632 v 0.97477 h -5.70735 a 2.2320808,2.2320808 0 0 0 0.70165,1.41271 2.1190641,2.1190641 0 0 0 1.47864,0.53212 2.5899672,2.5899672 0 0 0 2.16144,-1.00302 l 1.17255,1.31382 a 3.607118,3.607118 0 0 1 -1.45509,1.19138 4.8032119,4.8032119 0 0 1 -2.03901,0.40969 z m -0.27312,-7.34609 a 1.50689,1.50689 0 0 0 -1.15372,0.4709 2.4628234,2.4628234 0 0 0 -0.56508,1.37975 h 3.32458 v -0.19307 a 1.7611777,1.7611777 0 0 0 -0.42853,-1.23377 1.5445623,1.5445623 0 0 0 -1.17725,-0.42381 z"
     id="path566"
     style="stroke-width:0.470903" /><path
     d="m 92.295808,90.686473 1.50689,-2.67473 h 2.557 l -2.54758,4.38882 2.65589,4.56776 h -2.56642 l -1.59636,-2.82542 -1.59165,2.82542 h -2.57114 l 2.6559,-4.56776 -2.54288,-4.38882 h 2.56642 z"
     id="path568"
     style="stroke-width:0.470903" /><path
     d="m 104.37448,94.966983 h 5.2694 v 1.99663 h -7.75577 v -12.0457 h 2.48637 z"
     id="path570"
     style="stroke-width:0.470903" /><path
     d="m 115.04043,97.133143 a 4.3935262,4.3935262 0 0 1 -3.20685,-1.20551 4.2946365,4.2946365 0 0 1 -1.23847,-3.22098 v -0.23074 a 5.4059679,5.4059679 0 0 1 0.5227,-2.41574 3.8331515,3.8331515 0 0 1 1.47393,-1.63874 4.1816198,4.1816198 0 0 1 2.18499,-0.5745 3.7201347,3.7201347 0 0 1 2.89134,1.15842 q 1.05012,1.15842 1.05482,3.29632 v 0.97477 h -5.70734 a 2.2273718,2.2273718 0 0 0 0.69693,1.41271 2.1284821,2.1284821 0 0 0 1.47864,0.53212 2.5805492,2.5805492 0 0 0 2.16145,-1.00302 l 1.17725,1.31382 a 3.6542083,3.6542083 0 0 1 -1.4598,1.19138 4.7985029,4.7985029 0 0 1 -2.02959,0.40969 z m -0.27783,-7.34609 a 1.4927629,1.4927629 0 0 0 -1.15371,0.4709 2.5004956,2.5004956 0 0 0 -0.5698,1.37975 h 3.32929 v -0.19307 a 1.7847229,1.7847229 0 0 0 -0.43323,-1.23377 1.5257261,1.5257261 0 0 0 -1.17255,-0.42381 z"
     id="path572"
     style="stroke-width:0.470903" /><path
     d="m 122.27822,88.011743 0.0753,1.03599 a 3.1220878,3.1220878 0 0 1 2.57113,-1.2008 2.5993853,2.5993853 0 0 1 2.11907,0.8335 3.917914,3.917914 0 0 1 0.71106,2.51933 v 5.7874 h -2.39219 v -5.74502 a 1.5539803,1.5539803 0 0 0 -0.33434,-1.10662 1.4786358,1.4786358 0 0 0 -1.10191,-0.34376 1.6387429,1.6387429 0 0 0 -1.5116,0.86175 v 6.31481 h -2.39219 v -8.94716 z"
     id="path574"
     style="stroke-width:0.470903" /><path
     d="m 134.42281,94.496083 a 0.76286307,0.76286307 0 0 0 -0.43794,-0.68752 4.8361751,4.8361751 0 0 0 -1.41271,-0.4709 q -3.19272,-0.67339 -3.19272,-2.71711 a 2.4581143,2.4581143 0 0 1 0.98889,-1.98721 3.9650044,3.9650044 0 0 1 2.58526,-0.80054 4.3181817,4.3181817 0 0 1 2.72653,0.80054 2.5334588,2.5334588 0 0 1 1.02186,2.09552 h -2.35452 a 1.1631307,1.1631307 0 0 0 -0.32963,-0.84763 1.7517596,1.7517596 0 0 0 -1.96837,-0.0612 0.86646176,0.86646176 0 0 0 -0.33434,0.69694 0.74402695,0.74402695 0 0 0 0.37672,0.64043 4.0450579,4.0450579 0 0 0 1.27144,0.42381 10.044364,10.044364 0 0 1 1.50689,0.40027 c 1.26202,0.4709 1.88361,1.26673 1.88361,2.40631 a 2.3545157,2.3545157 0 0 1 -1.05482,1.98251 4.506543,4.506543 0 0 1 -2.71241,0.75815 4.7090313,4.7090313 0 0 1 -2.00133,-0.40027 3.4046296,3.4046296 0 0 1 -1.37033,-1.10191 2.5664221,2.5664221 0 0 1 -0.49445,-1.5116 h 2.26504 a 1.2573114,1.2573114 0 0 0 0.47091,0.97948 1.8836125,1.8836125 0 0 0 1.17255,0.33905 1.7282145,1.7282145 0 0 0 1.04069,-0.26371 0.80524435,0.80524435 0 0 0 0.35318,-0.67339 z"
     id="path576"
     style="stroke-width:0.470903" /><path
     class="cls-1"
     d="m 385.83374,279.7767 c 0,0 -41.83504,-26.62486 -124.07827,-26.62486 -82.24323,0 -125.45801,26.62486 -125.45801,26.62486 v 57.1441 c 0,0 52.12898,-45.85184 125.45801,-45.85184 80.85407,0 124.07827,45.85184 124.07827,45.85184 z"
     id="path578"
     style="stroke-width:1.5;stroke-dasharray:none;stroke:#44a7ce;stroke-opacity:1" /><line
     class="cls-2"
     x1="393.07623"
     y1="284.13727"
     x2="393.07623"
     y2="331.9104"
     id="line580"
     style="stroke-width:1.5;stroke-dasharray:none" /><polyline
     class="cls-2"
     points="1287.1 742.6 1294.95 730.48 1302.47 742.95"
     id="polyline582"
     transform="matrix(0.47090313,0,0,0.47090313,-216.64444,-60.563824)" /><polyline
     class="cls-2"
     points="1287.1 824.77 1294.95 836.89 1302.47 824.42"
     id="polyline584"
     transform="matrix(0.47090313,0,0,0.47090313,-216.64444,-60.563824)" /><path
     d="m 235.41594,301.28458 3.93675,9.83246 3.94146,-9.83246 h 2.06256 v 12.05041 h -1.59165 v -4.70903 l 0.15068,-5.06221 -3.95558,9.75712 h -1.21964 l -3.94617,-9.73357 0.1554,5.03866 v 4.70903 h -1.58694 v -12.05041 z"
     id="path596"
     style="stroke-width:0.470903" /><path
     d="m 247.93255,302.00506 a 0.94180626,0.94180626 0 0 1 0.22603,-0.63101 0.8570437,0.8570437 0 0 1 0.67339,-0.25899 0.87117079,0.87117079 0 0 1 0.6781,0.25899 0.90413401,0.90413401 0 0 1 0.23545,0.63101 0.83349854,0.83349854 0 0 1 -0.91355,0.86647 0.85233467,0.85233467 0 0 1 -0.67339,-0.24958 0.88058885,0.88058885 0 0 1 -0.22603,-0.61689 z m 1.65287,11.32993 h -1.53986 v -8.94716 h 1.53044 z"
     id="path598"
     style="stroke-width:0.470903" /><path
     d="m 253.4845,304.37842 0.0518,1.12546 a 3.2539406,3.2539406 0 0 1 2.67943,-1.29028 q 2.82542,0 2.86309,3.20214 v 5.91925 h -1.53043 v -5.92867 a 2.0484286,2.0484286 0 0 0 -0.44265,-1.41271 1.7753048,1.7753048 0 0 0 -1.35149,-0.4709 2.2179537,2.2179537 0 0 0 -1.30911,0.39556 2.6417666,2.6417666 0 0 0 -0.87588,1.0454 v 6.38074 h -1.53515 v -8.94716 z"
     id="path600"
     style="stroke-width:0.470903" /><path
     d="m 261.40038,302.00506 a 0.94180626,0.94180626 0 0 1 0.22603,-0.63101 0.8570437,0.8570437 0 0 1 0.67339,-0.25899 0.87587982,0.87587982 0 0 1 0.6781,0.25899 0.90413401,0.90413401 0 0 1 0.23545,0.63101 0.83349854,0.83349854 0 0 1 -0.91355,0.86647 0.85233467,0.85233467 0 0 1 -0.67339,-0.24958 0.88058885,0.88058885 0 0 1 -0.22603,-0.61689 z m 1.65287,11.32993 h -1.53044 v -8.94716 h 1.53044 z"
     id="path602"
     style="stroke-width:0.470903" /><path
     d="m 266.94291,304.37842 0.0424,0.9936 a 3.2963219,3.2963219 0 0 1 2.65589,-1.15842 q 1.88361,0 2.55701,1.44096 a 3.4046296,3.4046296 0 0 1 1.16313,-1.0454 3.4705561,3.4705561 0 0 1 1.69525,-0.39556 q 2.94784,0 2.99493,3.12209 v 5.9993 h -1.53042 v -5.90983 a 2.0578467,2.0578467 0 0 0 -0.43794,-1.41271 1.9354119,1.9354119 0 0 0 -1.47393,-0.4709 1.9777931,1.9777931 0 0 0 -2.06726,1.88361 v 5.9428 h -1.53986 v -5.90042 c 0,-1.3044 -0.64043,-1.95425 -1.91186,-1.95425 a 2.0484286,2.0484286 0 0 0 -2.06256,1.28086 v 6.54084 h -1.53044 v -8.94716 z"
     id="path604"
     style="stroke-width:0.470903" /><path
     d="m 285.89204,312.4497 a 3.2492316,3.2492316 0 0 1 -2.62294,1.05011 2.7783285,2.7783285 0 0 1 -2.18028,-0.8335 3.5647367,3.5647367 0 0 1 -0.75815,-2.45811 v -5.82978 h 1.53043 v 5.7874 q 0,2.0343 1.65287,2.0343 c 1.17255,0 1.94954,-0.43323 2.35452,-1.30911 v -6.51259 h 1.53044 v 8.94716 h -1.4551 z"
     id="path606"
     style="stroke-width:0.470903" /><path
     d="m 291.14731,304.37842 0.0424,0.9936 a 3.2963219,3.2963219 0 0 1 2.65589,-1.15842 q 1.88361,0 2.557,1.44096 a 3.4046296,3.4046296 0 0 1 1.16313,-1.0454 3.4705561,3.4705561 0 0 1 1.69525,-0.39556 q 2.94786,0 2.99495,3.12209 v 5.9993 h -1.53044 v -5.90983 a 2.0578467,2.0578467 0 0 0 -0.43794,-1.41271 1.9448299,1.9448299 0 0 0 -1.47392,-0.4709 2.0390106,2.0390106 0 0 0 -1.41271,0.50857 2.0813918,2.0813918 0 0 0 -0.65456,1.37033 v 5.9428 h -1.53985 v -5.89571 q 0,-1.95425 -1.91187,-1.95425 a 2.0437196,2.0437196 0 0 0 -2.05784,1.28086 v 6.54084 h -1.53044 v -8.94716 z"
     id="path608"
     style="stroke-width:0.470903" /><path
     d="m 238.98539,319.53679 h -3.87083 v 10.75072 h -1.58223 v -10.75072 h -3.85199 v -1.29969 h 9.31918 z"
     id="path610"
     style="stroke-width:0.470903" /><path
     d="m 242.06509,322.41401 a 3.2539406,3.2539406 0 0 1 2.65119,-1.2479 q 2.82542,0 2.86309,3.20214 v 5.91926 h -1.53043 v -5.92867 a 2.0719738,2.0719738 0 0 0 -0.44265,-1.41271 1.7941409,1.7941409 0 0 0 -1.3562,-0.47091 2.2038266,2.2038266 0 0 0 -1.30441,0.39556 2.6888569,2.6888569 0 0 0 -0.88059,1.04541 v 6.38073 h -1.53043 v -12.71438 h 1.53043 z"
     id="path612"
     style="stroke-width:0.470903" /><path
     d="m 249.88209,318.95758 a 0.94180626,0.94180626 0 0 1 0.22603,-0.63101 0.8570437,0.8570437 0 0 1 0.67339,-0.259 0.87587982,0.87587982 0 0 1 0.6781,0.259 0.90413401,0.90413401 0 0 1 0.23545,0.63101 0.83349854,0.83349854 0 0 1 -0.91355,0.86646 0.85233467,0.85233467 0 0 1 -0.67339,-0.24958 0.88058885,0.88058885 0 0 1 -0.22603,-0.61688 z m 1.65287,11.32993 h -1.53044 v -8.94716 h 1.53044 z"
     id="path614"
     style="stroke-width:0.470903" /><path
     d="m 257.57664,329.20443 a 2.1849905,2.1849905 0 0 0 1.41271,-0.49916 1.7517596,1.7517596 0 0 0 0.68281,-1.23847 h 1.44568 a 2.7924556,2.7924556 0 0 1 -0.52742,1.46451 3.4893922,3.4893922 0 0 1 -1.3044,1.10662 3.767225,3.767225 0 0 1 -1.72821,0.41439 3.6871715,3.6871715 0 0 1 -2.91018,-1.21964 4.8832655,4.8832655 0 0 1 -1.07837,-3.3387 v -0.259 a 5.3918408,5.3918408 0 0 1 0.4709,-2.32626 3.6824625,3.6824625 0 0 1 1.37975,-1.58223 3.9367502,3.9367502 0 0 1 2.12377,-0.56038 3.5976999,3.5976999 0 0 1 2.5005,0.89943 3.2115593,3.2115593 0 0 1 1.06424,2.35451 h -1.44568 a 2.1190641,2.1190641 0 0 0 -0.65926,-1.41271 2.0484286,2.0484286 0 0 0 -1.4598,-0.56037 2.1567363,2.1567363 0 0 0 -1.81298,0.83821 3.9744224,3.9744224 0 0 0 -0.64042,2.42986 v 0.29196 a 3.8378605,3.8378605 0 0 0 0.64042,2.38277 2.1426092,2.1426092 0 0 0 1.84594,0.81466 z"
     id="path616"
     style="stroke-width:0.470903" /><path
     d="m 265.36067,326.13885 -0.9418,1.00302 v 3.14564 h -1.53044 v -12.71439 h 1.53044 v 7.68985 l 0.81937,-0.98419 2.78774,-2.94785 h 1.88362 l -3.48469,3.74368 3.88966,5.2129 h -1.79885 z"
     id="path618"
     style="stroke-width:0.470903" /><path
     d="m 272.89983,321.33093 0.0518,1.12546 a 3.2539406,3.2539406 0 0 1 2.67944,-1.29028 q 2.8254,0 2.86308,3.20214 v 5.91926 h -1.53042 v -5.92867 a 2.0484286,2.0484286 0 0 0 -0.44265,-1.41271 1.7753048,1.7753048 0 0 0 -1.3515,-0.47091 2.2179537,2.2179537 0 0 0 -1.30911,0.39556 2.6417666,2.6417666 0 0 0 -0.87588,1.04541 v 6.38073 h -1.53514 v -8.94715 z"
     id="path620"
     style="stroke-width:0.470903" /><path
     d="m 284.52171,330.45232 a 3.908496,3.908496 0 0 1 -2.96198,-1.19609 4.4311985,4.4311985 0 0 1 -1.1443,-3.19743 v -0.28255 a 5.3635867,5.3635867 0 0 1 0.50858,-2.35451 3.913205,3.913205 0 0 1 1.41271,-1.63874 3.5600277,3.5600277 0 0 1 1.9825,-0.59334 3.3481213,3.3481213 0 0 1 2.7124,1.149 q 0.97006,1.14901 0.97006,3.29632 v 0.63572 h -6.0511 a 3.1974323,3.1974323 0 0 0 0.77699,2.14261 2.4392782,2.4392782 0 0 0 1.88361,0.81466 2.6511846,2.6511846 0 0 0 1.37033,-0.33434 3.4187567,3.4187567 0 0 0 0.98889,-0.87588 l 0.94181,0.7299 a 3.767225,3.767225 0 0 1 -3.3905,1.70467 z m -0.18836,-8.0289 a 2.0484286,2.0484286 0 0 0 -1.55869,0.6734 3.2963219,3.2963219 0 0 0 -0.77699,1.88361 h 4.4877 v -0.11773 a 2.9290175,2.9290175 0 0 0 -0.63101,-1.80827 1.9165757,1.9165757 0 0 0 -1.52101,-0.63101 z"
     id="path622"
     style="stroke-width:0.470903" /><path
     d="m 294.9993,327.90945 a 1.1254585,1.1254585 0 0 0 -0.4709,-0.94181 4.4594526,4.4594526 0 0 0 -1.62933,-0.59334 7.4402695,7.4402695 0 0 1 -1.84594,-0.59805 2.6323485,2.6323485 0 0 1 -1.01244,-0.82408 1.9919202,1.9919202 0 0 1 -0.32492,-1.14429 2.3121344,2.3121344 0 0 1 0.9418,-1.86007 3.6212451,3.6212451 0 0 1 2.35452,-0.76286 3.767225,3.767225 0 0 1 2.47224,0.78641 2.5004956,2.5004956 0 0 1 0.94181,2.01075 h -1.53986 a 1.3844552,1.3844552 0 0 0 -0.53212,-1.08307 1.9966293,1.9966293 0 0 0 -1.34678,-0.47091 2.1190641,2.1190641 0 0 0 -1.30911,0.3626 1.1490036,1.1490036 0 0 0 -0.4709,0.94181 0.94180626,0.94180626 0 0 0 0.43794,0.83349 5.3635867,5.3635867 0 0 0 1.58694,0.53683 8.5845641,8.5845641 0 0 1 1.88361,0.61218 2.7689104,2.7689104 0 0 1 1.05483,0.85704 2.1426092,2.1426092 0 0 1 0.34376,1.22435 2.2838802,2.2838802 0 0 1 -0.94181,1.92128 4.0215127,4.0215127 0 0 1 -2.49108,0.72519 4.506543,4.506543 0 0 1 -1.90716,-0.38143 3.0891245,3.0891245 0 0 1 -1.29498,-1.06424 2.557004,2.557004 0 0 1 -0.4709,-1.47392 h 1.53043 a 1.5916526,1.5916526 0 0 0 0.61689,1.21963 2.3874789,2.3874789 0 0 0 1.52101,0.47091 2.4675324,2.4675324 0 0 0 1.41271,-0.35318 1.0830772,1.0830772 0 0 0 0.48974,-0.95122 z"
     id="path624"
     style="stroke-width:0.470903" /><path
     d="m 303.74397,327.90945 a 1.1160404,1.1160404 0 0 0 -0.4709,-0.94181 4.4217804,4.4217804 0 0 0 -1.62933,-0.59334 7.5061959,7.5061959 0 0 1 -1.84594,-0.59805 2.5805492,2.5805492 0 0 1 -1.00773,-0.82408 1.958957,1.958957 0 0 1 -0.32963,-1.14429 2.3121344,2.3121344 0 0 1 0.94181,-1.86007 3.6306631,3.6306631 0 0 1 2.35451,-0.76286 3.767225,3.767225 0 0 1 2.47224,0.78641 2.5004956,2.5004956 0 0 1 0.94181,2.01075 h -1.53985 a 1.3703281,1.3703281 0 0 0 -0.53212,-1.08307 1.9966293,1.9966293 0 0 0 -1.34679,-0.47091 2.0955189,2.0955189 0 0 0 -1.3044,0.3626 1.1537127,1.1537127 0 0 0 -0.4709,0.94181 0.94180626,0.94180626 0 0 0 0.44265,0.83349 5.3212054,5.3212054 0 0 0 1.58223,0.53683 8.5845641,8.5845641 0 0 1 1.88361,0.61218 2.7359472,2.7359472 0 0 1 1.05483,0.85704 2.104937,2.104937 0 0 1 0.34376,1.22435 2.2838802,2.2838802 0 0 1 -0.94181,1.92128 4.0120947,4.0120947 0 0 1 -2.49108,0.72519 4.4829978,4.4829978 0 0 1 -1.88361,-0.38143 3.1032516,3.1032516 0 0 1 -1.29969,-1.06424 2.557004,2.557004 0 0 1 -0.47091,-1.47392 h 1.53044 a 1.5916526,1.5916526 0 0 0 0.58863,1.24789 2.3968969,2.3968969 0 0 0 1.52102,0.4709 2.4534053,2.4534053 0 0 0 1.4127,-0.35318 1.0877862,1.0877862 0 0 0 0.49445,-0.97947 z"
     id="path626"
     style="stroke-width:0.470903" /><line
     class="cls-2"
     x1="265.03296"
     y1="256.3728"
     x2="265.03296"
     y2="286.39288"
     id="line628"
     style="stroke-width:1.5;stroke-dasharray:none" /><polyline
     class="cls-2"
     points="1253.19 682.91 1261.04 670.79 1268.57 683.26"
     id="polyline630"
     transform="matrix(0.47090313,0,0,0.47090313,-328.71938,-61.50563)" /><polyline
     class="cls-2"
     points="1253.19 730.08 1261.04 742.2 1268.57 729.73"
     id="polyline632"
     transform="matrix(0.47090313,0,0,0.47090313,-328.71938,-61.50563)" /><path
     d="m 405.58855,293.18335 3.93675,9.83246 3.94146,-9.83246 h 2.06255 v 12.05041 h -1.59165 v -4.70903 l 0.15069,-5.06692 -3.95559,9.75711 h -1.21964 l -3.94616,-9.73356 0.15539,5.04337 v 4.70903 h -1.58694 v -12.05041 z"
     id="path634"
     style="stroke-width:0.470903" /><path
     d="m 423.62414,305.23376 a 3.1785961,3.1785961 0 0 1 -0.21662,-0.94181 3.4140477,3.4140477 0 0 1 -2.54758,1.10663 3.164469,3.164469 0 0 1 -2.17558,-0.74874 2.4204421,2.4204421 0 0 1 -0.84762,-1.88361 2.5334588,2.5334588 0 0 1 1.06424,-2.17557 5.0339545,5.0339545 0 0 1 2.99023,-0.77229 h 1.49277 v -0.70164 a 1.7282145,1.7282145 0 0 0 -0.47091,-1.28086 1.9401209,1.9401209 0 0 0 -1.41271,-0.4709 2.2038266,2.2038266 0 0 0 -1.37032,0.41439 1.2149301,1.2149301 0 0 0 -0.55567,1.00303 h -1.53985 a 2.0908099,2.0908099 0 0 1 0.4709,-1.29499 3.2539406,3.2539406 0 0 1 1.29027,-0.9936 4.3935262,4.3935262 0 0 1 1.79415,-0.3626 3.5364825,3.5364825 0 0 1 2.42515,0.77699 2.7877465,2.7877465 0 0 1 0.90884,2.12849 v 4.12511 a 4.9915732,4.9915732 0 0 0 0.3155,1.95895 v 0.13186 z m -2.54288,-1.16784 a 2.6700207,2.6700207 0 0 0 1.36562,-0.37201 2.2273718,2.2273718 0 0 0 0.94181,-0.94181 v -1.84123 h -1.21023 c -1.88361,0 -2.82541,0.55096 -2.82541,1.64816 a 1.4127094,1.4127094 0 0 0 0.4709,1.12546 1.8365222,1.8365222 0 0 0 1.25731,0.38143 z"
     id="path636"
     style="stroke-width:0.470903" /><path
     d="m 430.32038,299.54996 1.98721,-3.29632 h 1.78472 l -2.92901,4.4312 3.02319,4.52538 h -1.77059 l -2.07198,-3.35284 -2.06726,3.35284 h -1.78001 l 3.01849,-4.52538 -2.92902,-4.4312 h 1.77059 z"
     id="path638"
     style="stroke-width:0.470903" /><path
     d="m 435.72635,293.90383 a 0.94180626,0.94180626 0 0 1 0.22603,-0.63101 1.0265688,1.0265688 0 0 1 1.35149,0 0.91355207,0.91355207 0 0 1 0.23545,0.63101 0.82878951,0.82878951 0 0 1 -0.91355,0.86646 0.86646176,0.86646176 0 0 1 -0.67339,-0.24487 0.89471595,0.89471595 0 0 1 -0.22603,-0.62159 z m 1.65287,11.32993 h -1.54456 v -8.94716 h 1.53043 z"
     id="path640"
     style="stroke-width:0.470903" /><path
     d="m 441.26888,296.27718 0.0424,0.99361 a 3.2963219,3.2963219 0 0 1 2.6606,-1.15842 q 1.88361,0 2.55701,1.44096 a 3.3481213,3.3481213 0 0 1 2.85367,-1.44096 q 2.94785,0 2.99494,3.12208 v 5.99931 h -1.53043 v -5.90983 a 2.0625557,2.0625557 0 0 0 -0.43794,-1.43626 1.9354119,1.9354119 0 0 0 -1.47393,-0.4709 2.0248835,2.0248835 0 0 0 -1.41271,0.50857 2.0625557,2.0625557 0 0 0 -0.65455,1.37033 v 5.9428 h -1.53986 v -5.87216 c 0,-1.3044 -0.64043,-1.95425 -1.91186,-1.95425 a 2.0484286,2.0484286 0 0 0 -2.06256,1.28556 v 6.53614 h -1.53044 v -8.94716 z"
     id="path642"
     style="stroke-width:0.470903" /><path
     d="m 460.21802,304.34846 a 3.2445226,3.2445226 0 0 1 -2.62293,1.05012 2.7736194,2.7736194 0 0 1 -2.18028,-0.82879 3.5976999,3.5976999 0 0 1 -0.75816,-2.46283 v -5.82978 h 1.53044 v 5.7874 q 0,2.0343 1.65758,2.0343 1.75176,0 2.35451,-1.3044 v -6.5173 h 1.53515 v 8.94716 h -1.4598 z"
     id="path644"
     style="stroke-width:0.470903" /><path
     d="m 465.4733,296.27718 0.0424,0.99361 a 3.2963219,3.2963219 0 0 1 2.65589,-1.15842 q 1.88362,0 2.56172,1.44096 a 3.3481213,3.3481213 0 0 1 2.85367,-1.44096 q 2.94314,0 2.99494,3.12208 v 5.99931 h -1.53043 v -5.90983 a 2.0625557,2.0625557 0 0 0 -0.43794,-1.43626 1.9354119,1.9354119 0 0 0 -1.47393,-0.4709 2.0390106,2.0390106 0 0 0 -1.41271,0.50857 2.0766828,2.0766828 0 0 0 -0.64984,1.37033 v 5.9428 h -1.53986 v -5.87216 c 0,-1.3044 -0.64043,-1.95425 -1.91186,-1.95425 a 2.0437196,2.0437196 0 0 0 -2.06256,1.28556 v 6.53614 h -1.53044 v -8.94716 z"
     id="path646"
     style="stroke-width:0.470903" /><path
     d="m 411.23468,311.43555 h -3.87083 v 10.75072 h -1.58223 v -10.75072 h -3.85199 v -1.29969 h 9.31917 z"
     id="path648"
     style="stroke-width:0.470903" /><path
     d="m 414.31438,314.31748 a 3.2586497,3.2586497 0 0 1 2.65119,-1.2526 q 2.82542,0 2.86309,3.20214 v 5.91925 h -1.53044 v -5.92396 a 2.0625557,2.0625557 0 0 0 -0.44265,-1.41271 1.7800138,1.7800138 0 0 0 -1.3562,-0.4709 2.1755725,2.1755725 0 0 0 -1.3044,0.40027 2.712402,2.712402 0 0 0 -0.88059,1.04069 v 6.38074 h -1.53043 v -12.71438 h 1.53043 z"
     id="path650"
     style="stroke-width:0.470903" /><path
     d="m 422.13137,310.85634 a 0.94180626,0.94180626 0 0 1 0.22604,-0.63101 0.8570437,0.8570437 0 0 1 0.67339,-0.25428 0.87587982,0.87587982 0 0 1 0.6781,0.25428 0.91355207,0.91355207 0 0 1 0.23545,0.63101 0.82878951,0.82878951 0 0 1 -0.91355,0.86647 0.86646176,0.86646176 0 0 1 -0.67339,-0.24487 0.89471595,0.89471595 0 0 1 -0.22604,-0.6216 z m 1.65287,11.32993 h -1.53043 v -8.94716 h 1.53043 z"
     id="path652"
     style="stroke-width:0.470903" /><path
     d="m 429.82593,321.1032 a 2.2038266,2.2038266 0 0 0 1.41271,-0.49445 1.7705958,1.7705958 0 0 0 0.68281,-1.24319 h 1.44567 a 2.7783285,2.7783285 0 0 1 -0.52741,1.46451 3.5459006,3.5459006 0 0 1 -1.3044,1.11133 3.8096063,3.8096063 0 0 1 -1.72821,0.40969 3.6871715,3.6871715 0 0 1 -2.91019,-1.21964 4.8832655,4.8832655 0 0 1 -1.07836,-3.3387 v -0.259 a 5.4059679,5.4059679 0 0 1 0.4709,-2.32626 3.6400812,3.6400812 0 0 1 1.37974,-1.57753 3.8990779,3.8990779 0 0 1 2.12378,-0.56508 3.5788638,3.5788638 0 0 1 2.50049,0.90413 3.1927232,3.1927232 0 0 1 1.06424,2.35452 h -1.44567 a 2.1190641,2.1190641 0 0 0 -0.65926,-1.41271 2.0484286,2.0484286 0 0 0 -1.4598,-0.56038 2.1473183,2.1473183 0 0 0 -1.81298,0.84292 3.9744224,3.9744224 0 0 0 -0.64043,2.42986 v 0.259 a 3.8378605,3.8378605 0 0 0 0.64043,2.38277 2.1426092,2.1426092 0 0 0 1.84594,0.83821 z"
     id="path654"
     style="stroke-width:0.470903" /><path
     d="m 437.60996,318.04233 -0.94181,0.99831 v 3.14563 h -1.53043 v -12.71438 h 1.53043 v 7.68985 l 0.81938,-0.98419 2.78774,-2.94785 h 1.88361 l -3.48468,3.76722 3.88966,5.2129 h -1.79885 z"
     id="path656"
     style="stroke-width:0.470903" /><path
     d="m 445.14912,313.2297 0.0518,1.12545 a 3.2680677,3.2680677 0 0 1 2.67944,-1.29027 q 2.82542,0 2.86309,3.20214 v 5.91925 h -1.53044 v -5.92396 a 2.0437196,2.0437196 0 0 0 -0.44265,-1.41271 1.7611777,1.7611777 0 0 0 -1.35149,-0.4709 2.1896996,2.1896996 0 0 0 -1.30911,0.40027 2.6606027,2.6606027 0 0 0 -0.87588,1.04069 v 6.38074 h -1.53514 v -8.94716 z"
     id="path658"
     style="stroke-width:0.470903" /><path
     d="m 456.77101,322.35109 a 3.8943689,3.8943689 0 0 1 -2.96198,-1.19609 4.4264894,4.4264894 0 0 1 -1.1443,-3.19744 v -0.28254 a 5.3777137,5.3777137 0 0 1 0.50858,-2.35451 3.9697134,3.9697134 0 0 1 1.41271,-1.63875 3.5600277,3.5600277 0 0 1 1.9825,-0.59334 3.3622483,3.3622483 0 0 1 2.7124,1.14901 c 0.64514,0.76757 0.97006,1.88361 0.97006,3.29632 v 0.63572 h -6.0511 a 3.1974323,3.1974323 0 0 0 0.77699,2.14261 2.4392782,2.4392782 0 0 0 1.88361,0.81466 2.6511846,2.6511846 0 0 0 1.37033,-0.32963 3.4375928,3.4375928 0 0 0 0.98889,-0.88059 l 0.94181,0.7299 a 3.767225,3.767225 0 0 1 -3.3905,1.70467 z m -0.18836,-8.00535 a 2.0390106,2.0390106 0 0 0 -1.55869,0.6781 3.2633587,3.2633587 0 0 0 -0.77699,1.88361 h 4.4877 v -0.11302 a 2.9101813,2.9101813 0 0 0 -0.63101,-1.80827 1.9212848,1.9212848 0 0 0 -1.52101,-0.66397 z"
     id="path660"
     style="stroke-width:0.470903" /><path
     d="m 467.2486,319.81292 a 1.1301675,1.1301675 0 0 0 -0.4709,-0.96535 4.4594526,4.4594526 0 0 0 -1.62932,-0.59334 7.6615939,7.6615939 0 0 1 -1.84595,-0.59334 2.6417666,2.6417666 0 0 1 -1.01244,-0.82879 1.9919202,1.9919202 0 0 1 -0.32492,-1.14429 2.3262615,2.3262615 0 0 1 0.94181,-1.88361 3.6212451,3.6212451 0 0 1 2.35451,-0.76287 3.767225,3.767225 0 0 1 2.47224,0.78641 2.5004956,2.5004956 0 0 1 0.94181,2.01076 h -1.53985 a 1.3844552,1.3844552 0 0 0 -0.53212,-1.08308 2.0201744,2.0201744 0 0 0 -1.34679,-0.4709 2.0908099,2.0908099 0 0 0 -1.30911,0.3673 1.1395856,1.1395856 0 0 0 -0.4709,0.94181 0.94180626,0.94180626 0 0 0 0.43794,0.8335 5.4766034,5.4766034 0 0 0 1.58694,0.54154 8.0995338,8.0995338 0 0 1 1.88361,0.61217 2.7265291,2.7265291 0 0 1 1.05483,0.85704 2.1237731,2.1237731 0 0 1 0.34376,1.21964 2.2980073,2.2980073 0 0 1 -0.94181,1.926 4.0497669,4.0497669 0 0 1 -2.49108,0.72048 4.5771784,4.5771784 0 0 1 -1.90715,-0.37672 3.1220878,3.1220878 0 0 1 -1.29499,-1.06424 2.5805492,2.5805492 0 0 1 -0.4709,-1.47864 h 1.53043 a 1.5916526,1.5916526 0 0 0 0.61689,1.21964 2.3874789,2.3874789 0 0 0 1.52101,0.4709 2.4675324,2.4675324 0 0 0 1.41271,-0.35318 1.0783682,1.0783682 0 0 0 0.48974,-0.90884 z"
     id="path662"
     style="stroke-width:0.470903" /><path
     d="m 475.99327,319.81292 a 1.1254585,1.1254585 0 0 0 -0.4709,-0.96535 4.4217804,4.4217804 0 0 0 -1.62932,-0.59334 7.7322294,7.7322294 0 0 1 -1.84594,-0.59334 2.5899672,2.5899672 0 0 1 -1.00774,-0.82879 1.958957,1.958957 0 0 1 -0.32963,-1.14429 2.3262615,2.3262615 0 0 1 0.94181,-1.88361 3.6306631,3.6306631 0 0 1 2.35451,-0.76287 3.767225,3.767225 0 0 1 2.47224,0.78641 2.5004956,2.5004956 0 0 1 0.94181,2.01076 h -1.53985 a 1.3703281,1.3703281 0 0 0 -0.53212,-1.08308 2.0201744,2.0201744 0 0 0 -1.34679,-0.4709 2.0672647,2.0672647 0 0 0 -1.3044,0.3673 1.1442946,1.1442946 0 0 0 -0.4709,0.94181 0.94180626,0.94180626 0 0 0 0.44265,0.8335 5.4342221,5.4342221 0 0 0 1.58223,0.54154 8.0995338,8.0995338 0 0 1 1.88362,0.61217 2.6935659,2.6935659 0 0 1 1.05482,0.85704 2.0908099,2.0908099 0 0 1 0.34376,1.21964 2.2980073,2.2980073 0 0 1 -0.94181,1.926 4.0403489,4.0403489 0 0 1 -2.49108,0.72048 4.5583423,4.5583423 0 0 1 -1.88361,-0.37672 3.1362148,3.1362148 0 0 1 -1.29969,-1.06424 2.5805492,2.5805492 0 0 1 -0.4709,-1.47864 h 1.53043 a 1.5916526,1.5916526 0 0 0 0.61688,1.21964 2.3968969,2.3968969 0 0 0 1.52102,0.4709 2.4534053,2.4534053 0 0 0 1.41271,-0.35318 1.0830772,1.0830772 0 0 0 0.46619,-0.90884 z"
     id="path664"
     style="stroke-width:0.470903" /><path
     d="m 45.44414,255.86583 a 4.2381282,4.2381282 0 0 1 -1.436254,3.06087 5.0433725,5.0433725 0 0 1 -3.414048,1.11604 4.5300881,4.5300881 0 0 1 -3.64479,-1.55868 q -1.327947,-1.5634 -1.327947,-4.28522 v -0.73461 a 7.228363,7.228363 0 0 1 0.612174,-3.06558 4.5677604,4.5677604 0 0 1 1.74705,-2.02959 5.4860215,5.4860215 0 0 1 6.008724,0.40968 4.5865965,4.5865965 0 0 1 1.473927,3.13622 h -2.486368 a 2.5146227,2.5146227 0 0 0 -0.659265,-1.69996 2.3874789,2.3874789 0 0 0 -1.69996,-0.52741 2.1143551,2.1143551 0 0 0 -1.883613,0.89 q -0.616883,0.89001 -0.63101,2.75949 v 0.91356 q 0,1.94954 0.593338,2.85367 a 2.0625557,2.0625557 0 0 0 1.883613,0.90413 2.4628234,2.4628234 0 0 0 1.718796,-0.52741 2.3874789,2.3874789 0 0 0 0.649846,-1.62461 z"
     id="path666"
     style="stroke-width:0.470903" /><path
     d="m 46.555471,255.30075 a 5.3023692,5.3023692 0 0 1 0.513285,-2.35452 3.767225,3.767225 0 0 1 1.478636,-1.61519 4.2946365,4.2946365 0 0 1 2.23679,-0.5698 4.0874392,4.0874392 0 0 1 2.96198,1.11134 4.4547436,4.4547436 0 0 1 1.276148,3.00907 v 0.61688 a 4.7090313,4.7090313 0 0 1 -1.153713,3.29632 4.4641617,4.4641617 0 0 1 -6.178249,0 4.7796668,4.7796668 0 0 1 -1.134877,-3.39992 z m 2.392188,0.16953 a 3.3387032,3.3387032 0 0 0 0.470903,1.94953 1.7235055,1.7235055 0 0 0 2.731239,0 3.6636264,3.6636264 0 0 0 0.470903,-2.13319 3.2963219,3.2963219 0 0 0 -0.470903,-1.94012 1.5775255,1.5775255 0 0 0 -1.375038,-0.68752 1.5586894,1.5586894 0 0 0 -1.356201,0.68281 3.7295528,3.7295528 0 0 0 -0.480321,2.12849 z"
     id="path668"
     style="stroke-width:0.470903" /><path
     d="m 58.704772,250.90252 0.07534,1.03598 a 3.1267968,3.1267968 0 0 1 2.57584,-1.2008 2.5993853,2.5993853 0 0 1 2.119064,0.83821 3.9226231,3.9226231 0 0 1 0.711064,2.49578 v 5.7874 h -2.392188 v -5.72618 a 1.5539803,1.5539803 0 0 0 -0.334341,-1.10662 1.4597997,1.4597997 0 0 0 -1.097205,-0.34376 1.6434519,1.6434519 0 0 0 -1.516308,0.86175 v 6.31481 h -2.401606 v -8.94716 z"
     id="path670"
     style="stroke-width:0.470903" /><path
     d="m 69.723905,258.09791 a 1.5492713,1.5492713 0 0 0 1.07366,-0.3673 1.2761475,1.2761475 0 0 0 0.43323,-0.96535 h 2.241499 a 3.0561613,3.0561613 0 0 1 -0.470903,1.667 3.3481213,3.3481213 0 0 1 -1.337365,1.17725 4.1910379,4.1910379 0 0 1 -1.883612,0.4144 3.8896599,3.8896599 0 0 1 -3.032616,-1.21964 4.8361751,4.8361751 0 0 1 -1.106623,-3.37167 v -0.1601 a 4.7937939,4.7937939 0 0 1 1.097205,-3.29633 3.8425695,3.8425695 0 0 1 3.023198,-1.23376 3.767225,3.767225 0 0 1 2.693566,0.9418 3.3763754,3.3763754 0 0 1 1.031277,2.54759 h -2.255626 a 1.662288,1.662288 0 0 0 -0.43323,-1.13959 1.4127094,1.4127094 0 0 0 -1.092496,-0.43323 1.4456726,1.4456726 0 0 0 -1.26202,0.60747 3.5459006,3.5459006 0 0 0 -0.423813,1.97779 v 0.24958 a 3.5929909,3.5929909 0 0 0 0.419104,1.98721 1.4597997,1.4597997 0 0 0 1.285565,0.61688 z"
     id="path672"
     style="stroke-width:0.470903" /><path
     d="m 80.027266,259.85909 a 2.7736194,2.7736194 0 0 1 -0.240161,-0.80053 2.8960542,2.8960542 0 0 1 -2.260335,0.96535 3.2021413,3.2021413 0 0 1 -2.180281,-0.75816 2.4581143,2.4581143 0 0 1 -0.861753,-1.92128 2.5240408,2.5240408 0 0 1 1.054823,-2.18499 5.1799344,5.1799344 0 0 1 3.046743,-0.77228 h 1.101914 v -0.51329 a 1.4786358,1.4786358 0 0 0 -0.315505,-0.9936 1.2761475,1.2761475 0 0 0 -1.007733,-0.37202 1.4127094,1.4127094 0 0 0 -0.941806,0.29196 0.97476948,0.97476948 0 0 0 -0.34376,0.79112 h -2.392188 a 2.3827698,2.3827698 0 0 1 0.470904,-1.41271 3.15976,3.15976 0 0 1 1.356201,-1.04069 4.9727371,4.9727371 0 0 1 1.968375,-0.37673 3.8896599,3.8896599 0 0 1 2.627639,0.8335 2.8960542,2.8960542 0 0 1 0.97477,2.35452 v 3.88495 a 4.205165,4.205165 0 0 0 0.357886,1.92599 v 0.14127 z m -1.977793,-1.66229 a 2.104937,2.104937 0 0 0 0.979478,-0.23545 1.5398532,1.5398532 0 0 0 0.659265,-0.63572 v -1.53985 H 78.7935 q -1.794141,0 -1.911867,1.24318 v 0.14128 a 0.94180626,0.94180626 0 0 0 0.310796,0.7346 1.2337662,1.2337662 0 0 0 0.857044,0.31551 z"
     id="path674"
     style="stroke-width:0.470903" /><path
     d="m 87.156739,256.93949 1.662288,-6.03697 h 2.500496 l -3.023198,8.94715 h -2.28388 l -3.018489,-8.94715 h 2.495786 z"
     id="path676"
     style="stroke-width:0.470903" /><path
     d="m 96.386441,260.02391 a 4.3935262,4.3935262 0 0 1 -3.206851,-1.20551 4.2805095,4.2805095 0 0 1 -1.238475,-3.22098 v -0.23074 a 5.4813124,5.4813124 0 0 1 0.517994,-2.41574 3.8755328,3.8755328 0 0 1 1.478635,-1.63874 4.1769108,4.1769108 0 0 1 2.180282,-0.5745 3.7248438,3.7248438 0 0 1 2.896054,1.15842 q 1.05482,1.15842 1.05482,3.29632 v 0.97477 h -5.702634 a 2.2179537,2.2179537 0 0 0 0.696937,1.41271 2.1284821,2.1284821 0 0 0 1.478636,0.53212 2.5805492,2.5805492 0 0 0 2.161445,-1.00302 l 1.172549,1.31853 a 3.6353722,3.6353722 0 0 1 -1.455091,1.18667 4.7985029,4.7985029 0 0 1 -2.034301,0.40969 z m -0.273124,-7.35551 a 1.50689,1.50689 0 0 0 -1.158422,0.4709 2.5287498,2.5287498 0 0 0 -0.565084,1.37975 h 3.329286 v -0.19307 a 1.7847229,1.7847229 0 0 0 -0.433231,-1.23377 1.5304352,1.5304352 0 0 0 -1.172549,-0.42381 z"
     id="path678"
     style="stroke-width:0.470903" /><path
     d="m 108.28616,257.86717 h 5.27412 v 1.99192 h -7.75578 v -12.05041 h 2.48166 z"
     id="path680"
     style="stroke-width:0.470903" /><path
     d="m 118.94741,260.02391 a 4.4076533,4.4076533 0 0 1 -3.20685,-1.20551 4.2946365,4.2946365 0 0 1 -1.23377,-3.22098 v -0.23074 a 5.415386,5.415386 0 0 1 0.518,-2.41574 3.8755328,3.8755328 0 0 1 1.47864,-1.63874 4.1627837,4.1627837 0 0 1 2.18028,-0.5745 3.7295528,3.7295528 0 0 1 2.89605,1.15842 q 1.05012,1.15842 1.05483,3.29632 v 0.97477 h -5.70264 a 2.1944086,2.1944086 0 0 0 0.69694,1.41271 2.1190641,2.1190641 0 0 0 1.47863,0.53212 2.5805492,2.5805492 0 0 0 2.16145,-1.00302 l 1.17254,1.31853 a 3.6353722,3.6353722 0 0 1 -1.45509,1.18667 4.8032119,4.8032119 0 0 1 -2.03901,0.40969 z m -0.27312,-7.35551 a 1.502181,1.502181 0 0 0 -1.15371,0.4709 2.4957866,2.4957866 0 0 0 -0.56509,1.37975 h 3.32458 v -0.19307 a 1.7611777,1.7611777 0 0 0 -0.42852,-1.23377 1.5445623,1.5445623 0 0 0 -1.17726,-0.42381 z"
     id="path682"
     style="stroke-width:0.470903" /><path
     d="m 126.19461,250.90252 0.0706,1.03598 a 3.1315058,3.1315058 0 0 1 2.57584,-1.2008 2.5852582,2.5852582 0 0 1 2.11906,0.83821 3.8661147,3.8661147 0 0 1 0.71107,2.49578 v 5.7874 h -2.39219 v -5.72618 a 1.5539803,1.5539803 0 0 0 -0.31551,-1.09249 1.4786358,1.4786358 0 0 0 -1.10191,-0.34376 1.648161,1.648161 0 0 0 -1.51631,0.86175 v 6.31481 h -2.39219 v -8.94716 z"
     id="path684"
     style="stroke-width:0.470903" /><path
     d="m 138.3345,257.38685 a 0.76286307,0.76286307 0 0 0 -0.43324,-0.69223 4.8879745,4.8879745 0 0 0 -1.4127,-0.4709 q -3.19744,-0.66868 -3.19744,-2.71711 a 2.4581143,2.4581143 0 0 1 0.9889,-1.98721 3.9932585,3.9932585 0 0 1 2.58997,-0.80054 4.2899275,4.2899275 0 0 1 2.72653,0.80525 2.5193317,2.5193317 0 0 1 1.02186,2.0861 h -2.39219 a 1.1631307,1.1631307 0 0 0 -0.32963,-0.85234 1.7611777,1.7611777 0 0 0 -1.97309,-0.0612 0.86175273,0.86175273 0 0 0 -0.32963,0.69693 0.74402695,0.74402695 0 0 0 0.37672,0.64043 3.8849508,3.8849508 0 0 0 1.27144,0.42381 10.204471,10.204471 0 0 1 1.50689,0.40027 c 1.26202,0.4709 1.88361,1.26673 1.88361,2.40632 a 2.3545157,2.3545157 0 0 1 -1.05011,1.9825 4.515961,4.515961 0 0 1 -2.71711,0.75815 4.7090313,4.7090313 0 0 1 -1.99663,-0.40027 3.3434122,3.3434122 0 0 1 -1.37033,-1.10191 2.5664221,2.5664221 0 0 1 -0.49445,-1.5116 h 2.26505 a 1.2526023,1.2526023 0 0 0 0.4709,0.97948 1.8836125,1.8836125 0 0 0 1.17726,0.33905 1.7753048,1.7753048 0 0 0 1.04069,-0.259 0.82408048,0.82408048 0 0 0 0.37673,-0.66397 z"
     id="path686"
     style="stroke-width:0.470903" /><metadata
     id="metadata1104"><rdf:RDF><cc:Work
         rdf:about=""><dc:title>02-ThicknessTavola disegno 1</dc:title></cc:Work></rdf:RDF></metadata><path
     style="opacity:1;fill:#ff8580;stroke:#4d4d4d;stroke-width:1.333;stroke-opacity:1"
     d="m 145.51298,258.9864 c 13.34981,14.6848 13.34981,14.6848 13.34981,14.6848"
     id="path1876" /><path
     style="opacity:1;fill:#ff8580;stroke:#4d4d4d;stroke-width:1.333;stroke-opacity:1"
     d="m 135.78297,100.10103 c 35.203,18.91861 35.203,18.91861 35.203,18.91861"
     id="path1880" /></svg>
